<svg preserveAspectRatio="none" width="100%" height="100%" overflow="visible" style="display: block;" viewBox="0 0 990 530" fill="none" xmlns="http://www.w3.org/2000/svg">
<path id="Intersect" d="M968.399 0C982.399 40.7585 990 84.4915 990 130C990 350.914 810.914 530 590 530C557.266 530 525.451 526.067 495 518.649C464.549 526.067 432.734 530 400 530C179.086 530 0 350.914 0 130C0 84.4916 7.60005 40.7584 21.5996 0H23.7148C26.8713 9.13792 30.3519 18.1247 34.1416 26.9473C36.7069 17.8212 39.6033 8.83399 42.8193 0H44.8418C48.0346 8.72017 51.5405 17.2894 55.3438 25.6953C57.9758 16.9865 60.9271 8.41637 64.1875 0H66.1201C69.3536 8.29864 72.8879 16.4469 76.709 24.4316C79.4138 16.1431 82.4284 7.99473 85.7393 0H87.5791C90.8587 7.87269 94.4292 15.5939 98.2734 23.1523C101.058 15.2892 104.141 7.56703 107.509 0H109.263C128.196 42.2777 156.079 79.6726 190.503 109.774C192.408 71.5216 199.687 34.6837 211.6 0H213.715C216.871 9.13792 220.352 18.1247 224.142 26.9473C226.707 17.8212 229.603 8.83399 232.819 0H234.842C238.035 8.72017 241.54 17.2894 245.344 25.6953C247.976 16.9865 250.927 8.41637 254.188 0H256.12C259.354 8.29864 262.888 16.4469 266.709 24.4316C269.414 16.1431 272.428 7.99473 275.739 0H277.579C280.859 7.87269 284.429 15.5939 288.273 23.1523C291.058 15.2892 294.141 7.56703 297.509 0H299.263C336.288 82.6777 407.543 146.682 495 173.985C582.457 146.682 653.711 82.6775 690.736 0H692.49C695.859 7.56705 698.941 15.2892 701.726 23.1523C705.57 15.5939 709.14 7.8727 712.42 0H714.26C717.571 7.99475 720.585 16.1431 723.29 24.4316C727.111 16.4469 730.645 8.29866 733.879 0H735.812C739.072 8.41639 742.023 16.9864 744.655 25.6953C748.459 17.2894 751.964 8.72019 755.157 0H757.18C760.396 8.834 763.292 17.8212 765.857 26.9473C769.647 18.1247 773.128 9.13795 776.284 0H778.399C790.313 34.6838 797.591 71.5215 799.496 109.774C833.92 79.6726 861.803 42.2778 880.736 0H882.49C885.859 7.56705 888.941 15.2892 891.726 23.1523C895.57 15.5939 899.14 7.8727 902.42 0H904.26C907.571 7.99475 910.585 16.1431 913.29 24.4316C917.111 16.4469 920.645 8.29866 923.879 0H925.812C929.072 8.41639 932.023 16.9864 934.655 25.6953C938.459 17.2894 941.964 8.72019 945.157 0H947.18C950.396 8.834 953.292 17.8212 955.857 26.9473C959.647 18.1247 963.128 9.13795 966.284 0H968.399ZM22.6689 3.07324C9.26509 42.9363 2 85.6197 2 130C2 349.809 180.191 528 400 528C431.232 528 461.623 524.4 490.783 517.597C478.211 514.388 465.878 510.585 453.814 506.217C436.235 508.709 418.268 510 400 510C190.132 510 20 339.868 20 130C20 95.3971 24.6254 61.8745 33.291 30.0166C29.437 21.1967 25.8916 12.2111 22.6689 3.07324ZM967.33 3.07324C964.107 12.2111 960.562 21.1967 956.708 30.0166C965.374 61.8746 970 95.397 970 130C970 339.868 799.868 510 590 510C571.732 510 553.765 508.709 536.185 506.217C524.121 510.585 511.788 514.388 499.216 517.597C528.376 524.4 558.768 528 590 528C809.809 528 988 349.809 988 130C988 85.6196 980.734 42.9364 967.33 3.07324ZM495 498.027C482.899 501.142 470.564 503.675 458.027 505.596C470.096 509.836 482.431 513.512 495 516.59C507.569 513.512 519.903 509.836 531.972 505.596C519.436 503.675 507.101 501.142 495 498.027ZM34.5146 32.7871C26.2855 63.8066 21.9004 96.3912 21.9004 130C21.9004 338.819 191.181 508.1 400 508.1C416.955 508.1 433.649 506.982 450.013 504.819C437.997 500.33 426.255 495.279 414.818 489.698C409.904 489.897 404.964 490 400 490C201.177 490 40 328.823 40 130C40 105.514 42.4451 81.5995 47.1035 58.4863C42.6119 50.0945 38.4116 41.5233 34.5146 32.7871ZM955.484 32.7871C951.587 41.5233 947.387 50.0944 942.896 58.4863C947.554 81.5995 950 105.514 950 130C950 328.823 788.823 490 590 490C585.036 490 580.096 489.897 575.181 489.698C563.744 495.278 552.002 500.33 539.986 504.819C556.351 506.982 573.045 508.1 590 508.1C798.819 508.1 968.1 338.819 968.1 130C968.1 96.3911 963.714 63.8067 955.484 32.7871ZM455.945 485.677C443.827 487.568 431.508 488.854 419.021 489.504C430.466 494.956 442.211 499.878 454.227 504.238C466.759 502.438 479.092 500.024 491.195 497.026C479.2 493.805 467.44 490.011 455.945 485.677ZM534.054 485.677C522.559 490.011 510.799 493.805 498.804 497.026C510.907 500.024 523.24 502.438 535.772 504.238C547.788 499.878 559.533 494.956 570.978 489.504C558.491 488.854 546.172 487.568 534.054 485.677ZM495 477.331C483.469 480.478 471.707 483.066 459.746 485.063C471.246 489.283 483.007 492.96 495 496.063C506.992 492.96 518.753 489.283 530.253 485.063C518.292 483.066 506.531 480.478 495 477.331ZM48.4463 60.9717C44.0857 83.3082 41.7998 106.387 41.7998 130C41.7998 327.828 202.172 488.2 400 488.2C403.822 488.2 407.63 488.139 411.423 488.021C399.982 482.303 388.852 476.054 378.068 469.304C200.512 458 60 310.409 60 130C60 114.886 60.987 100.003 62.8984 85.4111C57.8023 77.4527 52.9809 69.3016 48.4463 60.9717ZM941.553 60.9717C937.018 69.3016 932.197 77.4527 927.101 85.4111C929.012 100.003 930 114.886 930 130C930 310.41 789.487 458 611.931 469.304C601.147 476.054 590.017 482.303 578.576 488.021C582.37 488.139 586.178 488.2 590 488.2C787.828 488.2 948.2 327.828 948.2 130C948.2 106.387 945.913 83.3083 941.553 60.9717ZM419.06 469.473C412.751 469.821 406.396 470 400 470C394.048 470 388.132 469.846 382.255 469.544C393.048 476.161 404.18 482.279 415.62 487.864C428.102 487.329 440.418 486.155 452.537 484.374C441.099 479.934 429.93 474.957 419.06 469.473ZM570.939 469.473C560.069 474.957 548.9 479.934 537.462 484.374C549.581 486.155 561.897 487.329 574.379 487.864C585.819 482.279 596.951 476.161 607.744 469.544C601.868 469.846 595.952 470 590 470C583.604 470 577.249 469.821 570.939 469.473ZM458.074 465.059C446.524 467.046 434.774 468.451 422.856 469.242C433.732 474.611 444.903 479.472 456.338 483.794C468.295 481.905 480.056 479.424 491.589 476.383C480.176 473.147 468.995 469.362 458.074 465.059ZM531.925 465.059C521.004 469.362 509.823 473.147 498.41 476.383C509.943 479.424 521.704 481.905 533.661 483.794C545.096 479.472 556.267 474.611 567.143 469.242C555.225 468.451 543.475 467.046 531.925 465.059ZM495 456.55C484.046 459.731 472.863 462.375 461.483 464.453C472.408 468.654 483.59 472.334 495 475.465C506.41 472.334 517.591 468.653 528.516 464.453C517.136 462.375 505.954 459.731 495 456.55ZM347.663 445.739C357.81 453.539 368.343 460.86 379.229 467.67C386.1 468.086 393.025 468.3 400 468.3C405.374 468.3 410.718 468.173 416.03 467.925C405.169 462.322 394.613 456.212 384.394 449.624C371.95 449.026 359.694 447.719 347.663 445.739ZM642.336 445.739C630.305 447.718 618.049 449.027 605.605 449.624C595.386 456.212 584.83 462.322 573.969 467.925C579.281 468.173 584.626 468.3 590 468.3C596.975 468.3 603.9 468.086 610.77 467.67C621.656 460.86 632.189 453.539 642.336 445.739ZM423.306 449.162C415.609 449.716 407.838 450 400 450C396.041 450 392.098 449.927 388.174 449.784C398.402 456.253 408.961 462.244 419.821 467.728C431.734 467.039 443.482 465.734 455.033 463.844C444.184 459.454 433.599 454.549 423.306 449.162ZM566.693 449.162C556.4 454.549 545.815 459.454 534.966 463.844C546.517 465.734 558.265 467.039 570.178 467.728C581.038 462.244 591.597 456.253 601.825 449.784C597.901 449.927 593.959 450 590 450C582.162 450 574.39 449.716 566.693 449.162ZM64.3291 87.6289C62.5948 101.509 61.7002 115.65 61.7002 130C61.7002 308.444 199.859 454.617 375.044 467.391C364.151 460.436 353.618 452.97 343.478 445.023C193.705 418.331 80 287.444 80 130C80 123.551 80.1921 117.146 80.5684 110.791C74.8918 103.272 69.4737 95.5477 64.3291 87.6289ZM925.67 87.6289C920.525 95.5477 915.107 103.272 909.431 110.791C909.807 117.146 910 123.551 910 130C910 287.445 796.295 418.331 646.521 445.023C636.381 452.97 625.848 460.436 614.955 467.391C790.14 454.617 928.3 308.445 928.3 130C928.3 115.65 927.404 101.509 925.67 87.6289ZM460.203 444.345C449.227 446.434 438.052 447.963 426.71 448.9C437.008 454.184 447.596 458.983 458.442 463.269C469.82 461.287 481.002 458.737 491.959 455.649C481.137 452.396 470.541 448.618 460.203 444.345ZM529.796 444.345C519.458 448.618 508.862 452.396 498.04 455.649C508.997 458.737 520.179 461.287 531.557 463.269C542.403 458.983 552.991 454.184 563.289 448.9C551.947 447.963 540.772 446.434 529.796 444.345ZM495 435.661C484.63 438.881 474.035 441.587 463.243 443.75C473.585 447.932 484.18 451.619 495 454.778C505.82 451.619 516.414 447.932 526.756 443.75C515.964 441.587 505.369 438.88 495 435.661ZM225.24 229.903C250.107 320.907 308.12 398.223 385.499 448.075C390.306 448.291 395.14 448.4 400 448.4C406.927 448.4 413.802 448.178 420.619 447.742C338.725 403.995 275.724 329.514 247.021 239.702C239.647 236.647 232.384 233.379 225.24 229.903ZM764.759 229.903C757.615 233.379 750.352 236.647 742.978 239.702C714.275 329.514 651.275 403.995 569.38 447.742C576.197 448.178 583.073 448.4 590 448.4C594.86 448.4 599.694 448.291 604.5 448.075C681.879 398.223 739.892 320.907 764.759 229.903ZM201.632 217.424C222.072 308.621 273.814 387.99 344.986 443.664C357.012 445.759 369.269 447.179 381.717 447.884C304.872 397.432 247.422 319.866 222.969 228.79C215.73 225.211 208.615 221.42 201.632 217.424ZM788.367 217.424C781.384 221.42 774.269 225.211 767.03 228.79C742.577 319.867 685.127 397.432 608.282 447.884C620.731 447.179 632.987 445.759 645.013 443.664C716.185 387.99 767.927 308.622 788.367 217.424ZM249.2 240.598C278.273 330.245 341.735 404.401 424.023 447.506C435.361 446.66 446.534 445.221 457.51 443.219C371.779 406.91 304.034 336.432 271.354 248.862C263.868 246.321 256.481 243.563 249.2 240.598ZM740.799 240.598C733.518 243.563 726.132 246.321 718.645 248.862C685.965 336.432 618.22 406.91 532.489 443.219C543.465 445.221 554.638 446.66 565.976 447.506C648.265 404.401 711.726 330.246 740.799 240.598ZM82.0596 112.754C81.7548 118.464 81.5996 124.214 81.5996 130C81.5996 285.617 193.24 415.158 340.798 442.904C270.33 386.708 219.269 307.208 199.284 216.069C153.742 189.598 113.903 154.396 82.0596 112.754ZM907.939 112.754C876.096 154.396 836.257 189.598 790.715 216.069C770.73 307.208 719.669 386.708 649.201 442.904C796.76 415.158 908.4 285.617 908.4 130C908.4 124.214 908.244 118.464 907.939 112.754ZM273.436 249.562C306.439 336.9 374.549 407 460.552 442.648C471.341 440.571 481.937 437.948 492.309 434.812C403.905 406.502 332.231 340.802 295.896 256.316C288.318 254.279 280.829 252.026 273.436 249.562ZM716.563 249.562C709.17 252.026 701.681 254.279 694.103 256.316C657.768 340.802 586.094 406.502 497.69 434.812C508.062 437.948 518.658 440.571 529.447 442.648C615.45 407 683.56 336.9 716.563 249.562ZM692.131 256.843C659.528 265.427 625.298 270 590 270C557.266 270 525.451 266.067 495 258.649C464.549 266.067 432.734 270 400 270C364.701 270 330.471 265.427 297.868 256.843C334.48 341.047 406.432 406.335 495 433.985C583.568 406.336 655.519 341.047 692.131 256.843ZM288.789 233.466C291.238 240.596 293.933 247.612 296.863 254.504C329.757 263.305 364.33 268 400 268C431.232 268 461.623 264.4 490.783 257.597C478.211 254.388 465.878 250.585 453.814 246.217C436.235 248.709 418.268 250 400 250C361.306 250 323.964 244.215 288.789 233.466ZM701.21 233.466C666.035 244.215 628.693 250 590 250C571.732 250 553.765 248.709 536.185 246.217C524.121 250.585 511.788 254.388 499.216 257.597C528.376 264.4 558.768 268 590 268C625.669 268 660.242 263.305 693.136 254.504C696.067 247.612 698.761 240.596 701.21 233.466ZM495 238.027C482.899 241.142 470.564 243.675 458.027 245.596C470.096 249.836 482.431 253.512 495 256.59C507.569 253.512 519.903 249.836 531.972 245.596C519.436 243.675 507.101 241.142 495 238.027ZM265.354 225.454C267.509 232.793 269.906 240.027 272.535 247.149C279.897 249.637 287.355 251.914 294.902 253.975C291.996 247.064 289.324 240.031 286.898 232.884C279.621 230.618 272.437 228.138 265.354 225.454ZM724.645 225.454C717.562 228.138 710.378 230.618 703.101 232.884C700.675 240.031 698.003 247.064 695.097 253.975C702.644 251.914 710.102 249.637 717.464 247.149C720.093 240.027 722.49 232.793 724.645 225.454ZM281.77 210.134C283.62 217.271 285.712 224.311 288.036 231.245C323.417 242.199 361.019 248.1 400 248.1C416.955 248.1 433.649 246.982 450.013 244.819C437.997 240.33 426.255 235.279 414.818 229.698C409.904 229.897 404.964 230 400 230C358.584 230 318.802 223.005 281.77 210.134ZM708.229 210.134C671.197 223.005 631.416 230 590 230C585.036 230 580.096 229.897 575.181 229.698C563.744 235.278 552.002 240.33 539.986 244.819C556.351 246.982 573.045 248.1 590 248.1C628.98 248.1 666.582 242.199 701.963 231.245C704.287 224.311 706.379 217.271 708.229 210.134ZM242.132 215.755C243.986 223.303 246.079 230.757 248.403 238.108C255.652 241.097 263.008 243.878 270.464 246.443C267.861 239.301 265.49 232.048 263.361 224.691C256.177 221.922 249.098 218.941 242.132 215.755ZM747.867 215.755C740.901 218.941 733.822 221.922 726.638 224.691C724.509 232.048 722.138 239.301 719.535 246.443C726.991 243.878 734.347 241.097 741.596 238.108C743.92 230.757 746.013 223.303 747.867 215.755ZM455.945 225.677C443.827 227.568 431.508 228.854 419.021 229.504C430.466 234.956 442.211 239.878 454.227 244.238C466.759 242.438 479.092 240.024 491.195 237.026C479.2 233.805 467.44 230.011 455.945 225.677ZM534.054 225.677C522.559 230.011 510.799 233.805 498.804 237.026C510.907 240.024 523.24 242.438 535.772 244.238C547.788 239.878 559.533 234.956 570.978 229.504C558.491 228.854 546.172 227.568 534.054 225.677ZM219.202 204.315C220.749 212.078 222.534 219.755 224.549 227.338C231.66 230.836 238.89 234.128 246.232 237.206C243.936 229.834 241.871 222.36 240.044 214.793C232.976 211.509 226.026 208.014 219.202 204.315ZM770.797 204.315C763.973 208.014 757.023 211.509 749.955 214.793C748.128 222.36 746.063 229.834 743.767 237.206C751.109 234.128 758.339 230.836 765.45 227.338C767.465 219.755 769.25 212.078 770.797 204.315ZM495 217.331C483.469 220.478 471.707 223.066 459.746 225.063C471.246 229.283 483.007 232.96 495 236.063C506.992 232.96 518.753 229.283 530.253 225.063C518.292 223.066 506.531 220.478 495 217.331ZM259.261 201.448C260.837 208.779 262.65 216.021 264.692 223.167C271.746 225.871 278.902 228.37 286.152 230.656C283.851 223.706 281.782 216.65 279.953 209.497C272.954 207.022 266.054 204.336 259.261 201.448ZM730.738 201.448C723.945 204.336 717.045 207.022 710.046 209.497C708.217 216.65 706.148 223.706 703.847 230.656C711.097 228.37 718.253 225.871 725.307 223.167C727.349 216.021 729.162 208.779 730.738 201.448ZM276.678 186.942C277.963 194.06 279.485 201.095 281.234 208.04C318.401 221.098 358.371 228.2 400 228.2C403.822 228.2 407.63 228.139 411.423 228.021C399.982 222.303 388.852 216.054 378.068 209.304C342.508 207.04 308.435 199.308 276.678 186.942ZM713.321 186.942C681.564 199.308 647.491 207.04 611.931 209.304C601.147 216.054 590.017 222.303 578.576 228.021C582.37 228.139 586.178 228.2 590 228.2C631.629 228.2 671.598 221.097 708.765 208.04C710.514 201.095 712.036 194.06 713.321 186.942ZM419.06 209.473C412.751 209.821 406.396 210 400 210C394.048 210 388.132 209.846 382.255 209.544C393.048 216.161 404.18 222.279 415.62 227.864C428.102 227.329 440.418 226.155 452.537 224.374C441.099 219.934 429.93 214.957 419.06 209.473ZM570.939 209.473C560.069 214.957 548.9 219.934 537.462 224.374C549.581 226.155 561.897 227.329 574.379 227.864C585.819 222.279 596.951 216.161 607.744 209.544C601.868 209.846 595.952 210 590 210C583.604 210 577.249 209.821 570.939 209.473ZM196.657 191.072C197.887 199.056 199.353 206.961 201.05 214.781C208 218.8 215.082 222.615 222.289 226.218C220.304 218.612 218.55 210.914 217.032 203.131C210.106 199.319 203.312 195.296 196.657 191.072ZM793.342 191.072C786.687 195.296 779.893 199.319 772.967 203.131C771.449 210.914 769.695 218.612 767.71 226.218C774.917 222.615 781.999 218.8 788.949 214.781C790.646 206.961 792.112 199.056 793.342 191.072ZM458.074 205.059C446.524 207.046 434.774 208.451 422.856 209.242C433.732 214.611 444.903 219.472 456.338 223.794C468.295 221.905 480.056 219.424 491.589 216.383C480.176 213.147 468.995 209.362 458.074 205.059ZM531.925 205.059C521.004 209.362 509.823 213.147 498.41 216.383C509.943 219.424 521.704 221.905 533.661 223.794C545.096 219.472 556.267 214.611 567.143 209.242C555.225 208.451 543.475 207.046 531.925 205.059ZM236.983 191.061C238.277 198.59 239.805 206.039 241.561 213.4C248.498 216.607 255.55 219.609 262.707 222.399C260.689 215.235 258.898 207.976 257.346 200.628C250.444 197.646 243.654 194.454 236.983 191.061ZM753.016 191.061C746.345 194.454 739.555 197.646 732.653 200.628C731.101 207.976 729.31 215.235 727.292 222.399C734.449 219.609 741.501 216.607 748.438 213.4C750.194 206.039 751.722 198.59 753.016 191.061ZM495 196.55C484.046 199.731 472.863 202.375 461.483 204.453C472.408 208.654 483.59 212.334 495 215.465C506.41 212.334 517.591 208.653 528.516 204.453C517.136 202.375 505.954 199.731 495 196.55ZM85.085 82.7363C83.7653 91.6047 82.8098 100.592 82.2373 109.684C113.787 151.446 153.381 186.79 198.712 213.418C197.048 205.574 195.615 197.646 194.418 189.64C151.152 161.755 113.912 125.326 85.085 82.7363ZM904.914 82.7363C876.087 125.326 838.847 161.755 795.581 189.64C794.384 197.646 792.951 205.574 791.287 213.418C836.619 186.791 876.212 151.446 907.762 109.684C907.189 100.592 906.234 91.6048 904.914 82.7363ZM215.036 178.913C216.035 186.648 217.268 194.31 218.728 201.892C225.522 205.61 232.443 209.127 239.482 212.433C237.753 205.052 236.251 197.583 234.984 190.035C228.207 186.533 221.554 182.824 215.036 178.913ZM774.963 178.913C768.445 182.824 761.792 186.533 755.015 190.035C753.748 197.583 752.246 205.052 750.517 212.433C757.556 209.127 764.477 205.61 771.271 201.892C772.731 194.31 773.964 186.648 774.963 178.913ZM347.663 185.739C357.81 193.539 368.343 200.86 379.229 207.67C386.1 208.086 393.025 208.3 400 208.3C405.374 208.3 410.718 208.173 416.03 207.925C405.169 202.322 394.613 196.212 384.394 189.624C371.95 189.026 359.694 187.719 347.663 185.739ZM642.336 185.739C630.305 187.718 618.049 189.027 605.605 189.624C595.386 196.212 584.83 202.322 573.969 207.925C579.281 208.173 584.626 208.3 590 208.3C596.975 208.3 603.9 208.086 610.77 207.67C621.656 200.86 632.189 193.539 642.336 185.739ZM423.306 189.162C415.609 189.716 407.838 190 400 190C396.041 190 392.098 189.927 388.174 189.784C398.402 196.253 408.961 202.244 419.821 207.728C431.734 207.039 443.482 205.734 455.033 203.844C444.184 199.454 433.599 194.549 423.306 189.162ZM566.693 189.162C556.4 194.549 545.815 199.454 534.966 203.844C546.517 205.734 558.265 207.039 570.178 207.728C581.038 202.244 591.597 196.253 601.825 189.784C597.901 189.927 593.959 190 590 190C582.162 190 574.39 189.716 566.693 189.162ZM255.027 177.631C256.056 184.93 257.319 192.155 258.806 199.297C265.574 202.203 272.449 204.905 279.425 207.398C277.696 200.438 276.195 193.388 274.93 186.256C268.187 183.587 261.55 180.71 255.027 177.631ZM734.972 177.631C728.449 180.71 721.812 183.587 715.069 186.256C713.805 193.388 712.303 200.438 710.574 207.398C717.55 204.905 724.425 202.203 731.193 199.297C732.68 192.155 733.943 184.93 734.972 177.631ZM273.392 163.977C274.142 171.05 275.124 178.053 276.33 184.98C307.27 197.138 340.434 204.867 375.044 207.391C364.151 200.436 353.618 192.97 343.478 185.023C319.043 180.669 295.569 173.541 273.392 163.977ZM716.607 163.977C694.43 173.541 670.956 180.669 646.521 185.023C636.381 192.97 625.848 200.436 614.955 207.391C649.565 204.867 682.729 197.138 713.669 184.98C714.875 178.053 715.857 171.05 716.607 163.977ZM460.203 184.345C449.227 186.434 438.052 187.963 426.71 188.9C437.008 194.184 447.596 198.983 458.442 203.269C469.82 201.287 481.002 198.737 491.959 195.649C481.137 192.396 470.541 188.618 460.203 184.345ZM529.796 184.345C519.458 188.618 508.862 192.396 498.04 195.649C508.997 198.737 520.179 201.287 531.557 203.269C542.403 198.983 552.991 194.184 563.289 188.9C551.947 187.963 540.772 186.434 529.796 184.345ZM193.513 164.931C194.204 172.883 195.129 180.769 196.281 188.58C202.905 192.824 209.67 196.866 216.566 200.7C215.136 193.097 213.931 185.413 212.961 177.657C206.334 173.62 199.849 169.375 193.513 164.931ZM796.486 164.931C790.15 169.375 783.665 173.62 777.038 177.657C776.068 185.413 774.863 193.097 773.433 200.7C780.33 196.866 787.094 192.824 793.718 188.58C794.87 180.769 795.795 172.883 796.486 164.931ZM233.646 166.591C234.405 174.081 235.396 181.503 236.61 188.85C243.254 192.261 250.019 195.47 256.896 198.471C255.433 191.312 254.196 184.071 253.189 176.757C246.552 173.575 240.035 170.183 233.646 166.591ZM756.354 166.591C749.964 170.183 743.447 173.575 736.81 176.757C735.804 184.072 734.566 191.312 733.103 198.471C739.98 195.47 746.745 192.261 753.389 188.85C754.603 181.503 755.594 174.081 756.354 166.591ZM495 175.661C484.63 178.881 474.035 181.587 463.243 183.75C473.585 187.932 484.18 191.619 495 194.778C505.82 191.619 516.414 187.932 526.756 183.75C515.964 181.587 505.369 178.88 495 175.661ZM280.663 54.2549C278.603 62.6972 276.881 71.2718 275.509 79.9629C304.36 123.092 341.849 159.953 385.499 188.075C390.306 188.291 395.14 188.4 400 188.4C406.927 188.4 413.802 188.178 420.619 187.742C362.701 156.803 314.232 110.491 280.663 54.2549ZM709.336 54.2549C675.767 110.491 627.299 156.803 569.38 187.742C576.197 188.178 583.073 188.4 590 188.4C594.86 188.4 599.694 188.291 604.5 188.075C648.151 159.953 685.639 123.092 714.49 79.9629C713.118 71.2717 711.396 62.6972 709.336 54.2549ZM275.085 82.7363C273.765 91.6047 272.81 100.592 272.237 109.684C293.171 137.392 317.645 162.276 344.986 183.664C357.012 185.759 369.269 187.179 381.717 187.884C339.601 160.232 303.31 124.437 275.085 82.7363ZM714.914 82.7363C686.689 124.437 650.398 160.233 608.282 187.884C620.731 187.179 632.987 185.759 645.013 183.664C672.354 162.277 696.828 137.392 717.762 109.684C717.189 100.592 716.234 91.6048 714.914 82.7363ZM212.636 153.759C213.113 161.45 213.82 169.078 214.75 176.638C221.241 180.568 227.867 184.298 234.619 187.818C233.43 180.453 232.464 173.013 231.729 165.506C225.228 161.795 218.86 157.877 212.636 153.759ZM777.363 153.759C771.139 157.877 764.771 161.795 758.27 165.506C757.535 173.013 756.569 180.453 755.38 187.818C762.132 184.298 768.758 180.568 775.249 176.638C776.179 169.078 776.886 161.45 777.363 153.759ZM288.516 27.333C285.79 35.3402 283.374 43.4908 281.282 51.7705C315.204 109.259 364.725 156.444 424.023 187.506C435.361 186.66 446.534 185.221 457.51 183.219C384.735 152.397 324.922 96.9526 288.516 27.333ZM701.483 27.333C665.077 96.9527 605.264 152.397 532.489 183.219C543.465 185.221 554.638 186.66 565.976 187.506C625.274 156.444 674.795 109.259 708.717 51.7705C706.625 43.4908 704.209 35.3402 701.483 27.333ZM90.6631 54.2549C88.603 62.6972 86.8807 71.2718 85.5088 79.9629C114.041 122.615 151.019 159.138 194.052 187.14C192.931 179.304 192.036 171.396 191.376 163.421C150.717 134.46 116.333 97.2589 90.6631 54.2549ZM899.336 54.2549C873.665 97.259 839.283 134.46 798.623 163.421C797.963 171.396 797.068 179.304 795.947 187.14C838.98 159.138 875.958 122.615 904.49 79.9629C903.118 71.2717 901.396 62.6972 899.336 54.2549ZM252.544 154.075C253.053 161.321 253.791 168.504 254.75 175.617C261.251 178.712 267.866 181.606 274.587 184.29C273.401 177.348 272.438 170.331 271.707 163.244C265.204 160.395 258.813 157.336 252.544 154.075ZM737.455 154.075C731.186 157.336 724.795 160.395 718.292 163.244C717.561 170.331 716.598 177.348 715.412 184.29C722.133 181.606 728.748 178.712 735.249 175.617C736.208 168.504 736.946 161.321 737.455 154.075ZM272.06 112.754C271.755 118.464 271.6 124.214 271.6 130C271.6 140.852 272.143 151.578 273.203 162.15C294.615 171.456 317.249 178.476 340.798 182.904C315.12 162.427 292.019 138.856 272.06 112.754ZM717.939 112.754C697.98 138.856 674.879 162.427 649.201 182.904C672.75 178.476 695.384 171.456 716.796 162.15C717.856 151.577 718.4 140.852 718.4 130C718.4 124.214 718.244 118.464 717.939 112.754ZM298.391 1.96191C295.063 9.53005 292.021 17.2524 289.279 25.1152C325.822 95.8171 386.566 151.981 460.552 182.648C471.341 180.571 481.937 177.948 492.309 174.812C405.884 147.135 335.449 83.7245 298.391 1.96191ZM691.608 1.96191C654.55 83.7246 584.115 147.136 497.69 174.812C508.062 177.948 518.658 180.571 529.447 182.648C603.434 151.981 664.177 95.8172 700.72 25.1152C697.978 17.2524 694.936 9.53007 691.608 1.96191ZM192.103 139.052C192.279 146.957 192.685 154.805 193.315 162.59C199.623 167.054 206.082 171.319 212.682 175.376C211.78 167.796 211.101 160.147 210.652 152.437C204.315 148.179 198.128 143.715 192.103 139.052ZM797.896 139.052C791.871 143.715 785.684 148.179 779.347 152.437C778.898 160.147 778.219 167.796 777.317 175.376C783.917 171.319 790.376 167.054 796.684 162.59C797.315 154.805 797.72 146.957 797.896 139.052ZM232.012 142.411C232.265 149.842 232.743 157.216 233.442 164.525C239.808 168.133 246.303 171.54 252.918 174.738C251.981 167.609 251.265 160.411 250.776 153.149C244.39 149.777 238.133 146.194 232.012 142.411ZM757.987 142.411C751.866 146.194 745.609 149.777 739.223 153.149C738.734 160.411 738.018 167.609 737.081 174.738C743.696 171.54 750.191 168.133 756.557 164.525C757.256 157.216 757.734 149.842 757.987 142.411ZM211.9 130C211.9 137.261 212.105 144.475 212.509 151.635C218.709 155.771 225.054 159.707 231.533 163.435C230.858 156.106 230.403 148.714 230.174 141.266C223.936 137.352 217.842 133.23 211.903 128.908C211.902 129.272 211.9 129.636 211.9 130ZM778.096 128.908C772.157 133.23 766.063 137.352 759.825 141.266C759.596 148.714 759.141 156.106 758.466 163.435C764.945 159.707 771.29 155.771 777.49 151.635C777.894 144.475 778.1 137.261 778.1 130C778.1 129.636 778.097 129.272 778.096 128.908ZM254.329 87.6289C252.595 101.509 251.7 115.65 251.7 130C251.7 137.46 251.942 144.863 252.418 152.203C258.667 155.478 265.039 158.551 271.523 161.414C270.516 151.079 270 140.6 270 130C270 123.551 270.192 117.146 270.568 110.791C264.892 103.272 259.474 95.5477 254.329 87.6289ZM735.67 87.6289C730.525 95.5477 725.107 103.272 719.431 110.791C719.807 117.146 720 123.551 720 130C720 140.6 719.483 151.079 718.476 161.414C724.961 158.551 731.332 155.478 737.581 152.203C738.057 144.863 738.3 137.46 738.3 130C738.3 115.65 737.404 101.509 735.67 87.6289ZM98.5156 27.333C95.7897 35.3402 93.3738 43.4908 91.2822 51.7705C116.664 94.7859 150.779 132.033 191.189 161.074C190.589 153.265 190.213 145.394 190.068 137.466C152.288 107.771 120.956 70.2451 98.5156 27.333ZM891.483 27.333C869.043 70.2451 837.711 107.771 799.931 137.466C799.786 145.394 799.41 153.265 798.81 161.074C839.22 132.034 873.335 94.7859 898.717 51.7705C896.625 43.4908 894.209 35.3402 891.483 27.333ZM238.446 60.9717C234.086 83.3082 231.8 106.387 231.8 130C231.8 133.509 231.852 137.006 231.952 140.491C238.052 144.289 244.289 147.884 250.655 151.271C250.221 144.237 250 137.144 250 130C250 114.886 250.987 100.003 252.898 85.4111C247.802 77.4527 242.981 69.3016 238.446 60.9717ZM751.553 60.9717C747.018 69.3016 742.197 77.4527 737.101 85.4111C739.012 100.003 740 114.886 740 130C740 137.144 739.778 144.237 739.344 151.271C745.71 147.884 751.947 144.289 758.047 140.491C758.147 137.006 758.2 133.509 758.2 130C758.2 106.387 755.913 83.3083 751.553 60.9717ZM192.338 113.475C192.114 118.955 192 124.464 192 130C192 132.293 192.021 134.581 192.06 136.864C198.059 141.546 204.22 146.031 210.534 150.307C210.18 143.583 210 136.812 210 130C210 129.172 210.003 128.344 210.008 127.518C203.951 123.041 198.057 118.357 192.338 113.475ZM797.661 113.475C791.942 118.357 786.048 123.041 779.991 127.518C779.997 128.344 780 129.172 780 130C780 136.812 779.819 143.583 779.465 150.307C785.779 146.031 791.94 141.546 797.939 136.864C797.978 134.581 798 132.293 798 130C798 124.464 797.885 118.955 797.661 113.475ZM224.515 32.7871C216.536 62.8623 212.172 94.4088 211.914 126.934C217.83 131.272 223.901 135.411 230.118 139.341C230.039 136.237 230 133.123 230 130C230 105.514 232.445 81.5995 237.104 58.4863C232.612 50.0945 228.412 41.5233 224.515 32.7871ZM765.484 32.7871C761.587 41.5233 757.387 50.0944 752.896 58.4863C757.554 81.5995 760 105.514 760 130C760 133.123 759.96 136.237 759.881 139.341C766.098 135.411 772.169 131.272 778.085 126.934C777.827 94.4087 773.463 62.8624 765.484 32.7871ZM108.391 1.96191C105.063 9.53005 102.021 17.2524 99.2793 25.1152C121.443 67.9973 152.51 105.531 190.034 135.272C190.012 133.518 190 131.76 190 130C190 123.904 190.135 117.841 190.405 111.812C155.726 81.7262 127.582 44.3048 108.391 1.96191ZM881.608 1.96191C862.417 44.3049 834.274 81.7262 799.594 111.812C799.864 117.841 800 123.904 800 130C800 131.76 799.988 133.518 799.965 135.272C837.489 105.531 868.556 67.9974 890.72 25.1152C887.978 17.2524 884.936 9.53007 881.608 1.96191ZM212.669 3.07324C201.144 37.3489 194.158 73.7096 192.426 111.441C198.121 116.342 203.991 121.045 210.026 125.539C210.406 92.5152 214.998 60.5037 223.291 30.0166C219.437 21.1967 215.892 12.2111 212.669 3.07324ZM777.33 3.07324C774.107 12.2111 770.562 21.1967 766.708 30.0166C775.001 60.5037 779.593 92.5151 779.973 125.539C786.008 121.045 791.878 116.342 797.573 111.441C795.841 73.7095 788.855 37.349 777.33 3.07324ZM69.4639 57.6035C67.5323 66.4632 65.9479 75.4526 64.7256 84.5566C69.803 92.4743 75.154 100.2 80.7637 107.721C81.389 98.6282 82.3945 89.6403 83.7637 80.7725C78.7302 73.2354 73.9597 65.5077 69.4639 57.6035ZM259.464 57.6035C257.532 66.4632 255.948 75.4526 254.726 84.5566C259.803 92.4743 265.154 100.2 270.764 107.721C271.389 98.6282 272.394 89.6403 273.764 80.7725C268.73 73.2354 263.96 65.5077 259.464 57.6035ZM730.535 57.6035C726.039 65.5077 721.269 73.2353 716.235 80.7725C717.605 89.6403 718.61 98.6282 719.235 107.721C724.845 100.2 730.196 92.4743 735.273 84.5566C734.051 75.4525 732.467 66.4632 730.535 57.6035ZM920.535 57.6035C916.039 65.5077 911.269 73.2353 906.235 80.7725C907.605 89.6403 908.61 98.6282 909.235 107.721C914.845 100.2 920.196 92.4743 925.273 84.5566C924.051 75.4525 922.467 66.4632 920.535 57.6035ZM55.6709 30.9531C53.1309 39.7995 50.9209 48.7858 49.0586 57.8984C53.5271 66.2269 58.2836 74.3777 63.3145 82.3379C64.5916 73.2338 66.2296 64.2455 68.2129 55.3877C63.7489 47.4157 59.5636 39.2666 55.6709 30.9531ZM245.671 30.9531C243.131 39.7995 240.921 48.7858 239.059 57.8984C243.527 66.2269 248.284 74.3777 253.314 82.3379C254.592 73.2338 256.23 64.2455 258.213 55.3877C253.749 47.4157 249.564 39.2666 245.671 30.9531ZM744.328 30.9531C740.435 39.2666 736.25 47.4157 731.786 55.3877C733.769 64.2456 735.407 73.2338 736.685 82.3379C741.715 74.3777 746.472 66.2269 750.94 57.8984C749.078 48.7857 746.868 39.7995 744.328 30.9531ZM934.328 30.9531C930.435 39.2666 926.25 47.4157 921.786 55.3877C923.769 64.2456 925.407 73.2338 926.685 82.3379C931.715 74.3777 936.472 66.2269 940.94 57.8984C939.078 48.7857 936.868 39.7995 934.328 30.9531ZM76.9932 29.1318C74.3634 37.562 72.0547 46.1339 70.0811 54.833C74.5176 62.7351 79.2302 70.4612 84.2051 77.999C85.6254 69.3077 87.3953 60.734 89.501 52.293C85.0597 44.7445 80.8866 37.0197 76.9932 29.1318ZM266.993 29.1318C264.363 37.562 262.055 46.1339 260.081 54.833C264.518 62.7351 269.23 70.4612 274.205 77.999C275.625 69.3077 277.395 60.734 279.501 52.293C275.06 44.7445 270.887 37.0197 266.993 29.1318ZM723.006 29.1318C719.112 37.0197 714.939 44.7445 710.498 52.293C712.604 60.734 714.374 69.3076 715.794 77.999C720.769 70.4612 725.481 62.7351 729.918 54.833C727.944 46.1339 725.636 37.5621 723.006 29.1318ZM913.006 29.1318C909.112 37.0197 904.939 44.7445 900.498 52.293C902.604 60.734 904.374 69.3076 905.794 77.999C910.769 70.4612 915.481 62.7351 919.918 54.833C917.944 46.1339 915.636 37.5621 913.006 29.1318ZM43.8408 2.77246C40.6847 11.6068 37.8472 20.5927 35.3438 29.7168C39.1747 38.4509 43.3097 47.0213 47.7363 55.4141C49.6565 46.3001 51.9222 37.3134 54.5176 28.4678C50.6563 20.0634 47.0933 11.4936 43.8408 2.77246ZM233.841 2.77246C230.685 11.6068 227.847 20.5927 225.344 29.7168C229.175 38.4509 233.31 47.0213 237.736 55.4141C239.656 46.3001 241.922 37.3134 244.518 28.4678C240.656 20.0634 237.093 11.4936 233.841 2.77246ZM756.158 2.77246C752.906 11.4936 749.343 20.0634 745.481 28.4678C748.077 37.3134 750.343 46.3001 752.263 55.4141C756.689 47.0213 760.824 38.4509 764.655 29.7168C762.152 20.5927 759.314 11.6069 756.158 2.77246ZM946.158 2.77246C942.906 11.4936 939.343 20.0634 935.481 28.4678C938.077 37.3134 940.343 46.3001 942.263 55.4141C946.689 47.0213 950.824 38.4509 954.655 29.7168C952.152 20.5927 949.314 11.6069 946.158 2.77246ZM65.1621 2.48535C61.9546 10.903 59.0556 19.4726 56.4785 28.1807C60.3125 36.4931 64.4393 44.6427 68.8457 52.6162C70.8708 43.916 73.2284 35.3436 75.9072 26.9141C72.0351 18.9312 68.4484 10.7841 65.1621 2.48535ZM255.162 2.48535C251.955 10.903 249.056 19.4726 246.479 28.1807C250.312 36.4931 254.439 44.6427 258.846 52.6162C260.871 43.916 263.228 35.3436 265.907 26.9141C262.035 18.9312 258.448 10.7841 255.162 2.48535ZM734.837 2.48535C731.551 10.7841 727.964 18.9312 724.092 26.9141C726.771 35.3436 729.128 43.916 731.153 52.6162C735.56 44.6427 739.687 36.4931 743.521 28.1807C740.943 19.4726 738.044 10.903 734.837 2.48535ZM924.837 2.48535C921.551 10.7841 917.964 18.9312 914.092 26.9141C916.771 35.3436 919.128 43.916 921.153 52.6162C925.56 44.6427 929.687 36.4931 933.521 28.1807C930.943 19.4726 928.044 10.903 924.837 2.48535ZM86.665 2.2168C83.401 10.2122 80.4353 18.361 77.7793 26.6484C81.6201 34.5341 85.7412 42.2581 90.1309 49.8066C92.2677 41.5261 94.7282 33.3756 97.4971 25.3691C93.6076 17.8117 89.9915 10.0903 86.665 2.2168ZM276.665 2.2168C273.401 10.2122 270.435 18.361 267.779 26.6484C271.62 34.5341 275.741 42.2581 280.131 49.8066C282.268 41.5261 284.728 33.3756 287.497 25.3691C283.608 17.8117 279.991 10.0903 276.665 2.2168ZM713.334 2.2168C710.008 10.0903 706.391 17.8116 702.502 25.3691C705.271 33.3757 707.731 41.5261 709.868 49.8066C714.258 42.258 718.379 34.5341 722.22 26.6484C719.564 18.361 716.598 10.2123 713.334 2.2168ZM903.334 2.2168C900.008 10.0903 896.391 17.8116 892.502 25.3691C895.271 33.3757 897.731 41.5261 899.868 49.8066C904.258 42.258 908.379 34.5341 912.22 26.6484C909.564 18.361 906.598 10.2123 903.334 2.2168Z" fill="url(#paint0_linear_349_110)"/>
<defs>
<linearGradient id="paint0_linear_349_110" x1="590" y1="-1.81246e-07" x2="595.914" y2="529.934" gradientUnits="userSpaceOnUse">
<stop stop-color="#233939"/>
<stop offset="1" stop-color="#0D1213" stop-opacity="0"/>
</linearGradient>
</defs>
</svg>
