<svg width="125" height="33" viewBox="0 0 125 33" fill="none" xmlns="http://www.w3.org/2000/svg">
<g clip-path="url(#clip0_298_11)">
<path d="M31.9834 32.6143C31.9936 32.9079 32 33.2032 32 33.5C32 44.5457 24.8366 53.5 16 53.5C7.16344 53.5 0 44.5457 0 33.5C0 33.2032 0.0053871 32.9079 0.015625 32.6143C0.385327 37.0016 7.40018 40.5 16 40.5C24.5998 40.5 31.6136 37.0015 31.9834 32.6143ZM16 13.5C24.2612 13.5 31.0589 21.3264 31.9092 31.3711C31.0581 27.2281 24.2606 24 16 24C7.73925 24 0.940785 27.228 0.0898438 31.3711C0.940122 21.3263 7.73876 13.5 16 13.5Z" fill="#D9D9D9"/>
<path d="M16 0.5C24.8366 0.5 32 7.66344 32 16.5C32 19.2328 31.3143 21.8053 30.1064 24.0557C27.4087 17.7727 22.1039 13.5 16 13.5C9.89603 13.5 4.59027 17.7725 1.89258 24.0557C0.684848 21.8054 0 19.2326 0 16.5C0 7.66344 7.16344 0.5 16 0.5Z" fill="#0E5453"/>
</g>
<path d="M52.5 20.9423C54.5192 20.9423 56.0808 19.6231 56.5385 17.7115H59.4192C58.8808 21.1308 56.1346 23.5 52.5 23.5C48.4615 23.5 45.5 20.5385 45.5 16.5C45.5 12.4615 48.4615 9.5 52.5 9.5C56.1346 9.5 58.8808 11.8692 59.4192 15.2885H56.5385C56.0808 13.35 54.5192 12.0577 52.5 12.0577C50.0769 12.0577 48.3269 13.9423 48.3269 16.5C48.3269 19.0577 50.0769 20.9423 52.5 20.9423Z" fill="white"/>
<path d="M62.7897 23.2308V9.76923H72.482C74.905 9.76923 76.5204 11.3846 76.5204 13.8077C76.5204 15.9615 75.1204 17.4692 72.9935 17.6846C73.182 17.9 73.3704 18.1423 73.4781 18.3308L76.5204 23.2308H73.4781L70.0589 17.7115H65.482V23.2308H62.7897ZM65.482 15.2885H72.482C73.2897 15.2885 73.8281 14.75 73.8281 13.9423V13.5385C73.8281 12.7308 73.2897 12.1923 72.482 12.1923H65.482V15.2885Z" fill="white"/>
<path d="M93.2033 12.1923H82.7033V15.2885H90.511V17.7115H82.7033V20.8077H93.2033V23.2308H80.011V9.76923H93.2033V12.1923Z" fill="white"/>
<path d="M102.626 21.0769C105.076 21.0769 106.396 20.3769 106.396 19.1115C106.396 18.0346 105.211 17.5769 102.519 17.5769C98.2648 17.5769 96.434 16.4462 96.434 13.7269C96.434 10.9808 98.5879 9.5 102.626 9.5C106.342 9.5 108.819 11.2231 108.819 13.8077H106.126C106.126 12.6769 104.726 11.9231 102.626 11.9231C100.338 11.9231 99.1263 12.5423 99.1263 13.7269C99.1263 14.75 100.203 15.1538 102.761 15.1538C107.203 15.1538 109.088 16.3654 109.088 19.1115C109.088 21.9654 106.826 23.5 102.626 23.5C98.7494 23.5 96.1648 21.7769 96.1648 19.1923H98.8571C98.8571 20.3231 100.365 21.0769 102.626 21.0769Z" fill="white"/>
<path d="M110.987 12.1923V9.76923H124.449V12.1923H119.064V23.2308H116.372V12.1923H110.987Z" fill="white"/>
<defs>
<clipPath id="clip0_298_11">
<rect width="32" height="32" fill="white" transform="translate(0 0.5)"/>
</clipPath>
</defs>
</svg>
