<svg preserveAspectRatio="none" width="100%" height="100%" overflow="visible" style="display: block;" viewBox="0 0 28 28" fill="none" xmlns="http://www.w3.org/2000/svg">
<g id="Frame" clip-path="url(#clip0_349_27)">
<path id="Vector" d="M14 28C21.7321 28 28 21.7321 28 14C28 6.26801 21.7321 0 14 0C6.26801 0 0 6.26801 0 14C0 21.7321 6.26801 28 14 28Z" fill="var(--fill-0, #627EEA)"/>
<path id="Vector_2" d="M14.4375 3.5V11.2612L20.9973 14.1925L14.4375 3.5Z" fill="var(--fill-0, white)" fill-opacity="0.602"/>
<path id="Vector_3" d="M14.4358 3.5L7.875 14.1925L14.4358 11.2612V3.5Z" fill="var(--fill-0, white)"/>
<path id="Vector_4" d="M14.4375 19.222V24.4957L21.0017 15.414L14.4375 19.222Z" fill="var(--fill-0, white)" fill-opacity="0.602"/>
<path id="Vector_5" d="M14.4358 24.4957V19.2212L7.875 15.414L14.4358 24.4957Z" fill="var(--fill-0, white)"/>
<path id="Vector_6" d="M14.4375 18.0017L20.9973 14.1928L14.4375 11.2633V18.0017Z" fill="var(--fill-0, white)" fill-opacity="0.2"/>
<path id="Vector_7" d="M7.875 14.1928L14.4358 18.0017V11.2633L7.875 14.1928Z" fill="var(--fill-0, white)" fill-opacity="0.602"/>
</g>
<defs>
<clipPath id="clip0_349_27">
<rect width="28" height="28" fill="white"/>
</clipPath>
</defs>
</svg>
