<svg preserveAspectRatio="none" width="100%" height="100%" overflow="visible" style="display: block;" viewBox="0 0 152 24" fill="none" xmlns="http://www.w3.org/2000/svg">
<g id="HyperEVM mint 1" clip-path="url(#clip0_349_39)">
<path id="Vector" d="M25.837 9.52403C25.8605 11.6446 25.4166 13.6709 24.5445 15.6068C23.2993 18.3635 20.314 20.6175 17.5878 18.2183C15.3645 16.2627 14.952 12.2925 11.621 11.7113C7.21358 11.1773 7.10752 16.2861 4.22818 16.8634C1.01888 17.5153 -0.0456485 12.1197 0.00148938 9.66933C0.0486273 7.21893 0.700702 3.77504 3.48969 3.77504C6.69899 3.77504 6.91504 8.63262 10.9885 8.36952C15.0227 8.09463 15.0935 3.0407 17.7293 0.876966C20.0036 -0.992246 22.6787 0.378247 24.0182 2.62837C25.2595 4.70963 25.8056 7.15218 25.8331 9.52403H25.837Z" fill="var(--fill-0, #50D2C1)"/>
<path id="Vector_2" d="M37.9417 17.815V1.41612H39.4973V8.50813H49.0898V1.41612H50.6218V17.815H49.0898V9.82757H39.4973V17.815H37.9417Z" fill="var(--fill-0, #50D2C1)"/>
<path id="Vector_3" d="M54.6837 22.7881L56.805 17.5103L52.209 6.48355H53.8117L56.8285 13.9526C57.0014 14.4081 57.2449 15.0128 57.5592 15.7667C57.6063 15.6568 57.6534 15.5351 57.7005 15.4016C57.7477 15.268 57.7949 15.1463 57.842 15.0364C57.9362 14.8321 58.0187 14.6398 58.0895 14.4591C58.1602 14.2785 58.2269 14.1018 58.2898 13.929L61.118 6.48355H62.6501L56.2157 22.7881H54.6837Z" fill="var(--fill-0, #50D2C1)"/>
<path id="Vector_4" d="M64.204 22.7874V6.48282H65.6654V8.55623C66.0424 7.84939 66.5885 7.27213 67.3033 6.82447C68.0183 6.3768 68.8157 6.15296 69.6956 6.15296C70.7483 6.15296 71.6636 6.40822 72.4415 6.91871C73.2192 7.42922 73.8163 8.13606 74.2326 9.03925C74.6491 9.94243 74.8573 10.9674 74.8573 12.114C74.8573 13.2606 74.6411 14.3131 74.2091 15.2241C73.777 16.1352 73.1682 16.8499 72.3825 17.3682C71.5968 17.8866 70.7012 18.1458 69.6956 18.1458C68.8471 18.1458 68.0654 17.9415 67.3506 17.5331C66.6356 17.1248 66.0739 16.5279 65.6654 15.7425V22.7874H64.204ZM69.4835 16.9678C70.2534 16.9678 70.933 16.7635 71.5223 16.3551C72.1114 15.9467 72.5632 15.3773 72.8774 14.6468C73.1916 13.9165 73.3488 13.0722 73.3488 12.114C73.3488 11.1559 73.1877 10.3626 72.8656 9.64007C72.5435 8.91751 72.0918 8.35597 71.5104 7.95542C70.9291 7.55488 70.2534 7.3546 69.4835 7.3546C68.7136 7.3546 68.0575 7.55095 67.4684 7.94364C66.8791 8.33633 66.4195 8.89395 66.0895 9.6165C65.7596 10.3391 65.5946 11.1716 65.5946 12.114C65.5946 13.0565 65.7596 13.9165 66.0895 14.6468C66.4195 15.3773 66.8752 15.9467 67.4565 16.3551C68.038 16.7635 68.7136 16.9678 69.4835 16.9678Z" fill="var(--fill-0, #50D2C1)"/>
<path id="Vector_5" d="M81.8343 18.1458C80.7659 18.1458 79.827 17.9102 79.0179 17.4389C78.2087 16.9678 77.5801 16.2766 77.1323 15.3656C76.6846 14.4544 76.4606 13.3628 76.4606 12.0905C76.4606 10.9595 76.6924 9.94243 77.156 9.03925C77.6194 8.13606 78.2519 7.42922 79.0532 6.91871C79.8546 6.40822 80.7502 6.15296 81.7401 6.15296C82.8086 6.15296 83.7198 6.39643 84.4741 6.88337C85.2283 7.3703 85.8018 8.05752 86.1946 8.94501C86.5875 9.83249 86.7839 10.8653 86.7839 12.0433V12.3496H77.9219C77.9219 13.3235 78.0869 14.156 78.4169 14.8472C78.7468 15.5382 79.2104 16.0645 79.8075 16.4257C80.4046 16.787 81.0881 16.9678 81.8579 16.9678C82.7693 16.9678 83.5275 16.7518 84.1324 16.3198C84.7373 15.8878 85.1105 15.2399 85.2519 14.3759H86.7131C86.6031 15.0985 86.3478 15.7425 85.9472 16.308C85.5465 16.8734 84.9965 17.3211 84.2974 17.651C83.5981 17.9808 82.7771 18.1458 81.8343 18.1458ZM85.2283 11.2422C85.2126 10.0642 84.8984 9.12171 84.2855 8.41487C83.6727 7.70802 82.8243 7.3546 81.7401 7.3546C80.6559 7.3546 79.8192 7.71981 79.1357 8.45022C78.4522 9.18061 78.0633 10.1113 77.9691 11.2422H85.2283Z" fill="var(--fill-0, #50D2C1)"/>
<path id="Vector_6" d="M89.0428 17.816V6.48282H90.5041V8.74473C90.8183 7.99077 91.3093 7.3703 91.9772 6.88337C92.645 6.39643 93.4266 6.15296 94.3222 6.15296C94.5422 6.15296 94.7543 6.16867 94.9586 6.20009V7.61378C94.6915 7.58236 94.4558 7.56665 94.2516 7.56665C93.4974 7.56665 92.8374 7.73551 92.2717 8.07323C91.7061 8.41094 91.27 8.89395 90.9637 9.52226C90.6573 10.1506 90.5041 10.881 90.5041 11.7135V17.816H89.0428Z" fill="var(--fill-0, #50D2C1)"/>
<path id="Vector_7" d="M108.854 0.907104C109.544 0.907104 110.327 0.848157 111.203 0.730263L110.976 5.17657H110.622C110.571 3.93027 110.327 3.02922 109.889 2.47343C109.451 1.90079 108.668 1.61447 107.54 1.61447H102.184L100.668 8.76394H105.014C105.873 8.76394 106.496 8.5871 106.883 8.23341C107.287 7.86289 107.599 7.24815 107.818 6.3892H108.171L107.009 11.8208H106.656C106.723 11.3829 106.757 11.0797 106.757 10.9113C106.757 10.4229 106.614 10.0608 106.327 9.82499C106.041 9.58921 105.553 9.47131 104.862 9.47131H100.517L99.2536 15.3829C99.2031 15.6355 99.1778 15.8629 99.1778 16.065C99.1778 16.4187 99.2704 16.6797 99.4557 16.8481C99.641 16.9997 99.9357 17.0755 100.34 17.0755H104.559C105.687 17.0755 106.588 16.7976 107.262 16.2418C107.936 15.686 108.567 14.7765 109.157 13.5134H109.51L107.843 17.9597C107.051 17.8419 106.294 17.7829 105.569 17.7829H94.8578L94.9336 17.4292C95.7588 17.3956 96.3736 17.244 96.7778 16.9744C97.1988 16.705 97.4936 16.1745 97.662 15.3829L100.239 3.28185C100.289 2.99553 100.315 2.75973 100.315 2.57447C100.315 2.08605 100.155 1.75763 99.8346 1.5892C99.5315 1.40395 99.043 1.29447 98.3694 1.26079L98.4452 0.907104H108.854Z" fill="var(--fill-0, #50D2C1)"/>
<path id="Vector_8" d="M130.406 0.907124L130.33 1.26081C129.522 1.27765 128.874 1.4545 128.385 1.79133C127.914 2.12818 127.417 2.70923 126.895 3.5345L118.002 18.1618H117.649L114.92 3.55975C114.769 2.73449 114.533 2.15344 114.213 1.81659C113.893 1.47976 113.379 1.29449 112.672 1.26081L112.748 0.907124H118.583L118.508 1.26081C117.126 1.31133 116.436 1.83344 116.436 2.82713C116.436 3.01239 116.461 3.22292 116.512 3.4587L118.735 15.686L126.137 3.50924C126.474 2.9366 126.642 2.49029 126.642 2.17028C126.642 1.86712 126.499 1.64818 126.213 1.51343C125.943 1.36186 125.514 1.27765 124.924 1.26081L125 0.907124H130.406Z" fill="var(--fill-0, #50D2C1)"/>
<path id="Vector_9" d="M151.257 1.26081C150.449 1.27765 149.833 1.42081 149.413 1.69028C148.992 1.95976 148.714 2.43133 148.579 3.10501L145.901 15.6608C145.851 15.8629 145.825 16.0482 145.825 16.2166C145.825 16.6208 145.977 16.9156 146.28 17.1008C146.6 17.2693 147.114 17.3787 147.821 17.4292L147.745 17.7829H141.581L141.657 17.4292C142.499 17.3619 143.113 17.2103 143.501 16.9745C143.905 16.7218 144.174 16.284 144.31 15.6608L146.937 3.25659L136.806 18.1618H136.453L132.891 3.25659L130.263 15.6608C130.213 15.8798 130.187 16.0735 130.187 16.2418C130.187 16.646 130.339 16.9324 130.642 17.1008C130.945 17.2693 131.434 17.3787 132.107 17.4292L132.032 17.7829H126.827L126.903 17.4292C127.746 17.3619 128.36 17.2103 128.747 16.9745C129.135 16.7218 129.404 16.284 129.556 15.6608L132.209 3.10501C132.259 2.86923 132.284 2.66713 132.284 2.4987C132.284 2.06081 132.124 1.75765 131.804 1.58922C131.501 1.40397 131.012 1.29449 130.339 1.26081L130.415 0.907124H133.926L137.489 15.8629L147.695 0.907124H151.333L151.257 1.26081Z" fill="var(--fill-0, #50D2C1)"/>
</g>
<defs>
<clipPath id="clip0_349_39">
<rect width="151.579" height="24" fill="white"/>
</clipPath>
</defs>
</svg>
