<svg preserveAspectRatio="none" width="100%" height="100%" overflow="visible" style="display: block;" viewBox="0 0 28 28" fill="none" xmlns="http://www.w3.org/2000/svg">
<g id="USDC 1" clip-path="url(#clip0_349_21)">
<path id="Vector" fill-rule="evenodd" clip-rule="evenodd" d="M14 0C21.7321 0 28 6.26804 28 14C28 21.7319 21.7321 28 14 28C6.268 28 0 21.7319 0 14C0 6.26804 6.268 0 14 0Z" fill="var(--fill-0, #0085FF)"/>
<path id="Vector_2" d="M11.8653 22.5779C11.8653 22.864 11.6377 23.0261 11.3721 22.9403C7.69186 21.7577 5.03604 18.305 5.03604 14.2132C5.03604 10.1311 7.69186 6.66893 11.3721 5.48625C11.6471 5.40042 11.8653 5.56255 11.8653 5.84868V6.56402C11.8653 6.75478 11.723 6.97415 11.5428 7.04091C8.63089 8.11867 6.55365 10.9323 6.55365 14.2132C6.55365 17.5038 8.63089 20.3078 11.5428 21.3762C11.723 21.4428 11.8653 21.6622 11.8653 21.853V22.5779Z" fill="var(--fill-0, white)"/>
<path id="Vector_3" d="M14.8187 20.0297C14.8187 20.235 14.6469 20.4032 14.4369 20.4032H13.6735C13.4635 20.4032 13.2917 20.235 13.2917 20.0297V18.8532C11.6215 18.6291 10.8103 17.7234 10.5908 16.4724C10.5526 16.2576 10.7244 16.0709 10.9439 16.0709H11.8124C11.9937 16.0709 12.1465 16.2016 12.1846 16.3696C12.3469 17.1073 12.7859 17.6768 14.1221 17.6768C15.105 17.6768 15.8113 17.1353 15.8113 16.3323C15.8113 15.5294 15.401 15.2212 13.9503 14.9878C11.8124 14.7077 10.8007 14.0728 10.8007 12.4388C10.8007 11.1783 11.7838 10.1886 13.2917 9.9832V8.82543C13.2917 8.62002 13.4635 8.45195 13.6735 8.45195H14.4369C14.6469 8.45195 14.8187 8.62002 14.8187 8.82543V10.0112C16.0499 10.226 16.8325 10.9076 17.0902 12.0466C17.138 12.2614 16.9662 12.4575 16.7371 12.4575H15.9354C15.7636 12.4575 15.6205 12.3454 15.5728 12.1867C15.3532 11.4678 14.8282 11.1503 13.9121 11.1503C12.9004 11.1503 12.3755 11.6265 12.3755 12.2987C12.3755 13.0084 12.6714 13.3632 14.2271 13.5779C16.3267 13.858 17.4147 14.4462 17.4147 16.1923C17.4147 17.5181 16.4031 18.5919 14.8282 18.8346V20.0297H14.8187Z" fill="var(--fill-0, white)"/>
<path id="Vector_4" d="M16.6281 22.9403C16.353 23.0262 16.1349 22.864 16.1349 22.5774V21.8613C16.1349 21.6513 16.2582 21.4508 16.4573 21.3839C19.3598 20.3146 21.4465 17.4979 21.4465 14.2132C21.4465 10.9192 19.3693 8.11202 16.4573 7.04263C16.2771 6.9758 16.1349 6.75618 16.1349 6.56522V5.84912C16.1349 5.56266 16.3625 5.40035 16.6281 5.48628C20.3083 6.65115 22.9641 10.1171 22.9641 14.2037C22.9641 18.2998 20.3083 21.7563 16.6281 22.9403Z" fill="var(--fill-0, white)"/>
</g>
<defs>
<clipPath id="clip0_349_21">
<rect width="28" height="28" fill="white"/>
</clipPath>
</defs>
</svg>
