<svg preserveAspectRatio="none" width="100%" height="100%" overflow="visible" style="display: block;" viewBox="0 0 32 32" fill="none" xmlns="http://www.w3.org/2000/svg">
<g id="USDC 1">
<g clip-path="url(#clip0_349_81)">
<path id="Vector" fill-rule="evenodd" clip-rule="evenodd" d="M16 2C23.7321 2 30 8.26804 30 16C30 23.7319 23.7321 30 16 30C8.268 30 2 23.7319 2 16C2 8.26804 8.268 2 16 2Z" fill="var(--fill-0, #0085FF)"/>
<path id="Vector_2" d="M13.8653 24.5779C13.8653 24.864 13.6377 25.0261 13.3721 24.9403C9.69186 23.7577 7.03604 20.305 7.03604 16.2132C7.03604 12.1311 9.69186 8.66893 13.3721 7.48625C13.6471 7.40042 13.8653 7.56255 13.8653 7.84868V8.56402C13.8653 8.75478 13.723 8.97415 13.5428 9.04091C10.6309 10.1187 8.55365 12.9323 8.55365 16.2132C8.55365 19.5038 10.6309 22.3078 13.5428 23.3762C13.723 23.4428 13.8653 23.6622 13.8653 23.853V24.5779Z" fill="var(--fill-0, white)"/>
<path id="Vector_3" d="M16.8187 22.0297C16.8187 22.235 16.6469 22.4032 16.4369 22.4032H15.6735C15.4635 22.4032 15.2917 22.235 15.2917 22.0297V20.8532C13.6215 20.6291 12.8103 19.7234 12.5908 18.4724C12.5526 18.2576 12.7244 18.0709 12.9439 18.0709H13.8124C13.9937 18.0709 14.1465 18.2016 14.1846 18.3696C14.3469 19.1073 14.7859 19.6768 16.1221 19.6768C17.105 19.6768 17.8113 19.1353 17.8113 18.3323C17.8113 17.5294 17.401 17.2212 15.9503 16.9878C13.8124 16.7077 12.8007 16.0728 12.8007 14.4388C12.8007 13.1783 13.7838 12.1886 15.2917 11.9832V10.8254C15.2917 10.62 15.4635 10.452 15.6735 10.452H16.4369C16.6469 10.452 16.8187 10.62 16.8187 10.8254V12.0112C18.0499 12.226 18.8325 12.9076 19.0902 14.0466C19.138 14.2614 18.9662 14.4575 18.7371 14.4575H17.9354C17.7636 14.4575 17.6205 14.3454 17.5728 14.1867C17.3532 13.4678 16.8282 13.1503 15.9121 13.1503C14.9004 13.1503 14.3755 13.6265 14.3755 14.2987C14.3755 15.0084 14.6714 15.3632 16.2271 15.5779C18.3267 15.858 19.4147 16.4462 19.4147 18.1923C19.4147 19.5181 18.4031 20.5919 16.8282 20.8346V22.0297H16.8187Z" fill="var(--fill-0, white)"/>
<path id="Vector_4" d="M18.6281 24.9403C18.353 25.0262 18.1349 24.864 18.1349 24.5774V23.8613C18.1349 23.6513 18.2582 23.4508 18.4573 23.3839C21.3598 22.3146 23.4465 19.4979 23.4465 16.2132C23.4465 12.9192 21.3693 10.112 18.4573 9.04263C18.2771 8.9758 18.1349 8.75618 18.1349 8.56522V7.84912C18.1349 7.56266 18.3625 7.40035 18.6281 7.48628C22.3083 8.65115 24.9641 12.1171 24.9641 16.2037C24.9641 20.2998 22.3083 23.7563 18.6281 24.9403Z" fill="var(--fill-0, white)"/>
</g>
<rect x="1" y="1" width="30" height="30" rx="15" stroke="var(--stroke-0, #256960)" stroke-width="2"/>
</g>
<defs>
<clipPath id="clip0_349_81">
<rect x="2" y="2" width="28" height="28" rx="14" fill="white"/>
</clipPath>
</defs>
</svg>
