<svg preserveAspectRatio="none" width="100%" height="100%" overflow="visible" style="display: block;" viewBox="0 0 125 32" fill="none" xmlns="http://www.w3.org/2000/svg">
<g id="Frame 1707479160">
<g id="Frame 1707479157" clip-path="url(#clip0_349_89)">
<path id="Subtract" d="M31.9834 32.1143C31.9936 32.4079 32 32.7032 32 33C32 44.0457 24.8366 53 16 53C7.16344 53 0 44.0457 0 33C0 32.7032 0.0053871 32.4079 0.015625 32.1143C0.385327 36.5016 7.40018 40 16 40C24.5998 40 31.6136 36.5015 31.9834 32.1143ZM16 13C24.2612 13 31.0589 20.8264 31.9092 30.8711C31.0581 26.7281 24.2606 23.5 16 23.5C7.73925 23.5 0.940785 26.728 0.0898438 30.8711C0.940122 20.8263 7.73876 13 16 13Z" fill="var(--fill-0, #D9D9D9)"/>
<path id="Subtract_2" d="M16 0C24.8366 0 32 7.16344 32 16C32 18.7328 31.3143 21.3053 30.1064 23.5557C27.4087 17.2727 22.1039 13 16 13C9.89603 13 4.59027 17.2725 1.89258 23.5557C0.684848 21.3054 0 18.7326 0 16C0 7.16344 7.16344 0 16 0Z" fill="var(--fill-0, #0E5453)"/>
</g>
<g id="Crest">
<path d="M52.5 20.4423C54.5192 20.4423 56.0808 19.1231 56.5385 17.2115H59.4192C58.8808 20.6308 56.1346 23 52.5 23C48.4615 23 45.5 20.0385 45.5 16C45.5 11.9615 48.4615 9 52.5 9C56.1346 9 58.8808 11.3692 59.4192 14.7885H56.5385C56.0808 12.85 54.5192 11.5577 52.5 11.5577C50.0769 11.5577 48.3269 13.4423 48.3269 16C48.3269 18.5577 50.0769 20.4423 52.5 20.4423Z" fill="var(--fill-0, white)"/>
<path d="M62.7897 22.7308V9.26923H72.482C74.905 9.26923 76.5204 10.8846 76.5204 13.3077C76.5204 15.4615 75.1204 16.9692 72.9935 17.1846C73.182 17.4 73.3704 17.6423 73.4781 17.8308L76.5204 22.7308H73.4781L70.0589 17.2115H65.482V22.7308H62.7897ZM65.482 14.7885H72.482C73.2897 14.7885 73.8281 14.25 73.8281 13.4423V13.0385C73.8281 12.2308 73.2897 11.6923 72.482 11.6923H65.482V14.7885Z" fill="var(--fill-0, white)"/>
<path d="M93.2033 11.6923H82.7033V14.7885H90.511V17.2115H82.7033V20.3077H93.2033V22.7308H80.011V9.26923H93.2033V11.6923Z" fill="var(--fill-0, white)"/>
<path d="M102.626 20.5769C105.076 20.5769 106.396 19.8769 106.396 18.6115C106.396 17.5346 105.211 17.0769 102.519 17.0769C98.2648 17.0769 96.434 15.9462 96.434 13.2269C96.434 10.4808 98.5879 9 102.626 9C106.342 9 108.819 10.7231 108.819 13.3077H106.126C106.126 12.1769 104.726 11.4231 102.626 11.4231C100.338 11.4231 99.1263 12.0423 99.1263 13.2269C99.1263 14.25 100.203 14.6538 102.761 14.6538C107.203 14.6538 109.088 15.8654 109.088 18.6115C109.088 21.4654 106.826 23 102.626 23C98.7494 23 96.1648 21.2769 96.1648 18.6923H98.8571C98.8571 19.8231 100.365 20.5769 102.626 20.5769Z" fill="var(--fill-0, white)"/>
<path d="M110.987 11.6923V9.26923H124.449V11.6923H119.064V22.7308H116.372V11.6923H110.987Z" fill="var(--fill-0, white)"/>
</g>
</g>
<defs>
<clipPath id="clip0_349_89">
<rect width="32" height="32" fill="white"/>
</clipPath>
</defs>
</svg>
