<svg width="144" height="34" viewBox="0 0 144 34" fill="none" xmlns="http://www.w3.org/2000/svg">
    <g clip-path="url(#clip0_370_2)">
        <path
            d="M17.811 0C30.561 0 34.811 4.25 34.811 17C34.811 29.75 30.561 34 17.811 34C5.06104 34 0.811035 29.75 0.811035 17C0.811035 4.25 5.06104 0 17.811 0ZM17.8608 7.19336C15.9016 7.19336 14.1077 8.28958 13.2173 10.0342L8.64404 18.9912C8.26122 19.7416 8.07721 20.5781 8.10986 21.4199C8.14257 22.2617 8.39075 23.0814 8.83057 23.7998C9.27043 24.5183 9.88773 25.1115 10.6226 25.5234C11.3574 25.9353 12.1855 26.152 13.0278 26.1523H14.3882L16.7261 21.5771H13.0278C12.9684 21.5772 12.9097 21.5623 12.8579 21.5332C12.8061 21.5041 12.7629 21.4619 12.7319 21.4111C12.701 21.3604 12.6833 21.3025 12.6812 21.2432C12.6791 21.1837 12.6928 21.1241 12.7202 21.0713L17.2935 12.1143C17.347 12.0097 17.4285 11.9224 17.5288 11.8613C17.6293 11.8002 17.7451 11.7679 17.8628 11.7686C17.9802 11.7693 18.0952 11.8022 18.1948 11.8643C18.2947 11.9265 18.3759 12.0157 18.4282 12.1211L22.9028 21.0605C22.9305 21.1148 22.9443 21.1755 22.9419 21.2363C22.9394 21.2973 22.9212 21.3573 22.8892 21.4092C22.8571 21.461 22.8116 21.5037 22.7583 21.5332C22.7051 21.5625 22.6452 21.5776 22.5845 21.5771H19.0142L21.3032 26.1543H22.5845C23.4256 26.1551 24.2529 25.9406 24.9878 25.5312C25.7227 25.1219 26.3405 24.5311 26.7827 23.8154C27.2248 23.0998 27.4769 22.2827 27.5142 21.4424C27.5513 20.6021 27.3726 19.7665 26.9956 19.0146L22.521 10.0723C22.0886 9.20681 21.4231 8.4793 20.6001 7.9707C19.7771 7.46217 18.8283 7.19292 17.8608 7.19336Z"
            fill="#465654" />
        <path
            d="M44.6925 17.6694V23.3751H41.0481V9.85157H44.5607V15.1619H44.667C44.8951 14.5145 45.2754 14.0102 45.8081 13.6489C46.3768 13.273 47.0476 13.0816 47.7291 13.1007C48.4473 13.1007 49.0707 13.2636 49.5991 13.5894C50.1303 13.9153 50.5419 14.3644 50.8337 14.9367C51.1284 15.509 51.2736 16.1649 51.2693 16.9044V23.3751H47.625V17.6694C47.6292 17.1679 47.5038 16.7741 47.2488 16.4879C46.9981 16.2018 46.639 16.0587 46.1715 16.0587C45.899 16.0521 45.63 16.1204 45.3937 16.2563C45.1694 16.3846 44.9893 16.578 44.8773 16.8109C44.75 17.0789 44.6867 17.3728 44.6925 17.6694ZM54.7373 27.1788C54.3208 27.1788 53.9228 27.1455 53.5431 27.0789C53.2023 27.0272 52.8677 26.9411 52.5443 26.8218L53.3391 24.2336C53.6366 24.3398 53.9093 24.4078 54.1572 24.4376C54.3716 24.4711 54.5909 24.4529 54.7968 24.3844C54.885 24.3531 54.9654 24.3034 55.0329 24.2385C55.1003 24.1736 55.1531 24.0952 55.1878 24.0083L55.2665 23.8234L51.7007 13.2324H55.5045L57.1407 20.2577H57.247L58.9108 13.2324H62.7401L59.0426 24.2187C58.8584 24.7797 58.59 25.2826 58.2372 25.7274C57.8901 26.1737 57.4326 26.5279 56.8645 26.7899C56.2978 27.0492 55.5873 27.1788 54.7373 27.1788ZM63.5943 27.1788V13.2324H67.2132V15.0026H67.2918C67.4245 14.6545 67.6212 14.3345 67.872 14.0591C68.127 13.7687 68.4443 13.537 68.824 13.3642C69.2401 13.1835 69.69 13.0936 70.1436 13.1007C70.8123 13.1007 71.4484 13.2792 72.0518 13.6362C72.6596 13.9932 73.1526 14.5542 73.5308 15.3192C73.9133 16.0842 74.1046 17.0794 74.1046 18.3048C74.1046 19.4736 73.9219 20.444 73.5564 21.2161C73.1965 21.9867 72.7127 22.5605 72.105 22.9373C71.5113 23.3144 70.8214 23.5121 70.1181 23.5068C69.6421 23.5068 69.2171 23.4296 68.8431 23.2752C68.4873 23.1258 68.1639 22.9085 67.8911 22.6356C67.6355 22.3674 67.4323 22.0539 67.2918 21.7112H67.2387V27.1788H63.5943ZM67.1601 18.3048C67.1601 18.7978 67.2238 19.2242 67.3513 19.5841C67.4831 19.9411 67.6673 20.2187 67.9038 20.4171C68.1475 20.6112 68.4365 20.7082 68.7708 20.7082C69.0788 20.7155 69.3795 20.6148 69.6208 20.4234C69.8753 20.205 70.0632 19.9192 70.1627 19.5989C70.2902 19.2377 70.354 18.8056 70.354 18.3027C70.354 17.8012 70.2902 17.3727 70.1627 17.0171C70.0685 16.6942 69.8807 16.4065 69.623 16.1904C69.3835 15.9938 69.0806 15.891 68.7708 15.9014C68.4576 15.8936 68.1516 15.9959 67.906 16.1904C67.6482 16.4094 67.4562 16.6955 67.3513 17.0171C67.2238 17.3741 67.1601 17.8033 67.1601 18.3048ZM80.3053 23.5599C79.223 23.5599 78.2901 23.3531 77.5067 22.9394C76.7408 22.5335 76.1133 21.9083 75.7047 21.1438C75.2854 20.3604 75.0757 19.4226 75.0757 18.3303C75.0757 17.282 75.2875 16.3661 75.7111 15.5827C76.1347 14.7993 76.7311 14.1901 77.5003 13.7552C78.2696 13.3203 79.1784 13.1021 80.2267 13.1007C80.9917 13.1007 81.6852 13.2197 82.3071 13.4577C82.929 13.6957 83.4596 14.0414 83.8987 14.4947C84.3379 14.9438 84.6765 15.4892 84.9145 16.1309C85.1525 16.7755 85.2715 17.5002 85.2715 18.3048V19.1484H76.2126V17.1424H81.9182C81.9187 16.871 81.8405 16.6053 81.693 16.3774C81.5538 16.1534 81.3552 15.9724 81.1192 15.8547C80.8681 15.7242 80.5883 15.6584 80.3053 15.6634C80.0231 15.6588 79.7441 15.7245 79.4936 15.8547C79.2527 15.9696 79.0472 16.1473 78.8986 16.3689C78.7523 16.6007 78.6729 16.8684 78.6691 17.1424V19.3078C78.6691 19.6337 78.7371 19.9241 78.8731 20.1791C79.0091 20.4341 79.2053 20.6345 79.4617 20.7804C79.7181 20.9264 80.0263 20.9986 80.3861 20.9972C80.6192 20.9997 80.8511 20.9638 81.0725 20.8909C81.285 20.8215 81.4656 20.7209 81.6143 20.5892C81.7608 20.4542 81.8736 20.2868 81.9437 20.1004H85.2715C85.1581 20.8045 84.8876 21.4165 84.4597 21.9364C84.0333 22.4507 83.4673 22.8509 82.7618 23.1371C82.062 23.4204 81.2432 23.5614 80.3053 23.5599ZM86.5741 23.3751V13.2324H90.1122V15.1619H90.2185C90.4026 14.4479 90.6952 13.9259 91.0961 13.5958C91.4998 13.2657 91.973 13.1007 92.5156 13.1007C92.6743 13.1007 92.8301 13.1142 92.9831 13.1411C93.1432 13.1637 93.2955 13.1963 93.44 13.2388V16.3498C93.2231 16.2801 92.9994 16.2338 92.7727 16.2117C92.5471 16.184 92.3201 16.1684 92.0927 16.1649C91.7559 16.1602 91.4239 16.2445 91.1301 16.4093C90.8483 16.566 90.6169 16.7997 90.4628 17.0829C90.2948 17.3923 90.2105 17.7403 90.2185 18.0923V23.3751H86.5741ZM97.5391 23.5068C96.8342 23.5116 96.1426 23.3147 95.5458 22.9394C94.9423 22.5598 94.4578 21.9853 94.0923 21.2161C93.7311 20.444 93.5505 19.4736 93.5505 18.3048C93.5505 17.0808 93.7403 16.0856 94.12 15.3192C94.5025 14.5542 94.9955 13.9932 95.599 13.6362C96.2053 13.2792 96.8428 13.1007 97.5115 13.1007C98.0144 13.1007 98.455 13.1885 98.8332 13.3642C99.2115 13.537 99.5288 13.7687 99.7852 14.0591C100.04 14.3438 100.234 14.6583 100.365 15.0026H100.418V9.85157H104.063V23.3751H100.444V21.7112H100.365C100.223 22.0623 100.011 22.3815 99.744 22.65C99.4765 22.9185 99.1583 23.1311 98.8077 23.2752C98.4052 23.4388 97.9735 23.5162 97.5391 23.5068ZM98.8863 20.7103C99.1979 20.7179 99.5021 20.6147 99.7448 20.4192C100.002 20.1975 100.193 19.9093 100.297 19.5862C100.431 19.2249 100.497 18.7985 100.497 18.3069C100.497 17.804 100.431 17.3748 100.299 17.0192C100.198 16.6961 100.005 16.4091 99.7448 16.1926C99.5018 15.9978 99.1977 15.8954 98.8863 15.9036C98.575 15.8954 98.2709 15.9978 98.0278 16.1926C97.7739 16.4124 97.5862 16.6986 97.486 17.0192C97.3627 17.3762 97.3011 17.8054 97.3011 18.3069C97.3011 18.8084 97.3627 19.2398 97.486 19.6011C97.6135 19.9567 97.7941 20.2315 98.0278 20.4256C98.2658 20.6154 98.552 20.7103 98.8863 20.7103ZM105.663 23.3751V13.2324H109.203V15.1619H109.309C109.494 14.4479 109.786 13.9259 110.187 13.5958C110.591 13.2657 111.064 13.1007 111.607 13.1007C111.765 13.1007 111.921 13.1142 112.074 13.1411C112.234 13.1637 112.386 13.1963 112.531 13.2388V16.3498C112.314 16.2801 112.09 16.2338 111.864 16.2117C111.638 16.184 111.411 16.1684 111.184 16.1649C110.847 16.1602 110.515 16.2445 110.221 16.4093C109.939 16.566 109.708 16.7997 109.554 17.0829C109.386 17.3923 109.302 17.7403 109.309 18.0923V23.3751H105.663ZM113.54 23.3751V13.2324H117.185V23.3751H113.54ZM115.364 12.1763C114.893 12.1848 114.438 12.0095 114.095 11.6876C113.928 11.5409 113.795 11.36 113.704 11.1573C113.613 10.9545 113.567 10.7346 113.568 10.5124C113.568 10.0549 113.744 9.66315 114.095 9.33732C114.438 9.0154 114.893 8.84005 115.364 8.84857C115.834 8.83833 116.289 9.01396 116.63 9.33732C116.797 9.48383 116.931 9.66458 117.022 9.86733C117.114 10.0701 117.16 10.2901 117.159 10.5124C117.159 10.9714 116.983 11.3632 116.63 11.6876C116.289 12.0109 115.834 12.1866 115.364 12.1763ZM129.078 13.2324L125.67 23.3751H121.447L118.039 13.2324H121.87L123.507 19.9411H123.613L125.249 13.2324H129.078ZM134.48 23.5599C133.396 23.5599 132.463 23.3531 131.679 22.9394C130.913 22.5335 130.286 21.9083 129.877 21.1438C129.459 20.3604 129.25 19.4226 129.25 18.3303C129.25 17.282 129.462 16.3661 129.884 15.5827C130.307 14.8007 130.904 14.1915 131.673 13.7552C132.444 13.3189 133.352 13.1007 134.399 13.1007C135.164 13.1007 135.859 13.2197 136.482 13.4577C137.1 13.6957 137.629 14.0414 138.071 14.4947C138.511 14.9438 138.85 15.4892 139.089 16.1309C139.326 16.7755 139.444 17.5002 139.444 18.3048V19.1484H130.385V17.1424H136.091C136.091 16.871 136.013 16.6053 135.866 16.3774C135.726 16.1534 135.528 15.9724 135.292 15.8547C135.041 15.7245 134.762 15.6588 134.48 15.6634C134.197 15.6584 133.917 15.7242 133.666 15.8547C133.425 15.9696 133.22 16.1473 133.071 16.3689C132.925 16.6007 132.845 16.8684 132.842 17.1424V19.3078C132.842 19.6337 132.91 19.9241 133.046 20.1791C133.183 20.4341 133.379 20.6345 133.634 20.7804C133.889 20.9264 134.197 20.9986 134.559 20.9972C134.792 20.9997 135.024 20.9638 135.245 20.8909C135.458 20.8215 135.638 20.7209 135.787 20.5892C135.933 20.4542 136.046 20.2868 136.116 20.1004H139.444C139.331 20.8045 139.06 21.4165 138.632 21.9364C138.207 22.4507 137.642 22.8509 136.937 23.1371C136.235 23.4204 135.417 23.5614 134.48 23.5599Z"
            fill="#465654" />
    </g>
    <defs>
        <clipPath id="clip0_370_2">
            <rect width="142.375" height="34" fill="white" transform="translate(0.811035)" />
        </clipPath>
    </defs>
</svg>