<svg preserveAspectRatio="none" width="100%" height="100%" overflow="visible" style="display: block;" viewBox="0 0 195 30" fill="none" xmlns="http://www.w3.org/2000/svg">
<g id="HL logo_dark green 2" clip-path="url(#clip0_349_67)">
<path id="Vector" d="M34.3684 12.5261C34.3684 23.8419 27.4211 27.4735 23.7368 24.2629C20.7368 21.6314 19.8421 16.0524 15.3158 15.4735C9.57895 14.7893 9.05263 22.4208 5.26316 22.4208C0.842105 22.4208 0 16.0524 0 12.7366C0 9.36821 0.947368 4.78924 4.68421 4.78924C9.05263 4.78924 9.31579 11.3682 14.7895 10.9998C20.2105 10.6314 20.3158 3.78925 23.8947 0.894509C27 -1.68444 34.3684 1.0524 34.3684 12.5261Z" fill="var(--fill-0, #465654)"/>
<path id="Vector_2" d="M50.6841 23.0524V1.10504H52.7894V10.6314H65.6315V1.10504H67.6842V23.1051H65.6315V12.4208H52.7894V23.1051H50.6841V23.0524Z" fill="var(--fill-0, #465654)"/>
<path id="Vector_3" d="M73.158 29.7366L76.0001 22.684L69.8422 7.89453H72.0001L76.0527 17.8945C76.2632 18.5261 76.6316 19.3156 77.0527 20.3156C77.1053 20.1577 77.158 19.9998 77.2632 19.8419C77.3159 19.684 77.3685 19.5261 77.4737 19.3682C77.579 19.1051 77.7369 18.8419 77.7895 18.5787C77.8422 18.3156 77.9474 18.1051 78.0527 17.8419L81.8422 7.8419H83.8948L75.2632 29.684H73.158V29.7366Z" fill="var(--fill-0, #465654)"/>
<path id="Vector_4" d="M85.8946 29.7366V7.8945H87.842V8.84187C87.842 9.0524 87.842 9.21029 87.842 9.42082C87.842 9.63134 87.842 9.84187 87.842 10.0524C87.842 10.1577 87.842 10.2629 87.842 10.3682C87.842 10.4734 87.842 10.5787 87.842 10.684C88.3683 9.73661 89.0525 8.94713 90.0525 8.36819C90.9999 7.78924 92.0525 7.47345 93.263 7.47345C94.6841 7.47345 95.8946 7.84187 96.9473 8.52608C97.9999 9.21029 98.7894 10.1577 99.3683 11.3682C99.9473 12.5787 100.21 13.9471 100.21 15.4734C100.21 17.0524 99.9473 18.4208 99.3683 19.6313C98.7894 20.8419 97.9473 21.7892 96.9473 22.5261C95.8946 23.2103 94.6841 23.5787 93.3683 23.5787C92.2104 23.5787 91.2104 23.3156 90.2104 22.7366C89.263 22.2103 88.5262 21.3682 87.9473 20.3156C87.9473 20.4735 87.9473 20.6313 87.9473 20.8419C87.9473 20.9998 87.9473 21.1577 87.9473 21.3156C87.9473 21.4208 87.9473 21.5787 87.9473 21.684C87.9473 21.7892 87.9473 21.8945 87.9473 21.9998V29.7892H85.8946V29.7366ZM92.9473 21.9471C93.9999 21.9471 94.8946 21.684 95.6841 21.105C96.4736 20.5261 97.0525 19.7892 97.5262 18.7892C97.9473 17.7892 98.1578 16.684 98.1578 15.4208C98.1578 14.1577 97.9473 13.0524 97.5262 12.105C97.1052 11.1577 96.4736 10.3682 95.6841 9.84187C94.8946 9.31556 93.9999 9.0524 92.9473 9.0524C91.9473 9.0524 91.0525 9.31556 90.263 9.84187C89.4736 10.3682 88.842 11.105 88.4209 12.105C87.9999 13.0524 87.7367 14.2103 87.7367 15.4734C87.7367 16.7366 87.9473 17.8945 88.4209 18.8419C88.842 19.8419 89.4736 20.5787 90.263 21.1577C91.0525 21.7366 91.9473 21.9471 92.9473 21.9471Z" fill="var(--fill-0, #465654)"/>
<path id="Vector_5" d="M109.526 23.5261C108.105 23.5261 106.842 23.2103 105.737 22.5787C104.632 21.9471 103.789 20.9997 103.21 19.7892C102.632 18.5786 102.316 17.105 102.316 15.4208C102.316 13.8945 102.632 12.5261 103.263 11.3155C103.895 10.105 104.737 9.1576 105.789 8.47339C106.842 7.78918 108.053 7.42076 109.368 7.42076C110.789 7.42076 112 7.73655 113.053 8.42076C114.053 9.05234 114.842 9.99976 115.368 11.1577C115.895 12.3682 116.158 13.7365 116.158 15.3155V15.7366H104.263C104.263 17.0524 104.474 18.1576 104.947 19.105C105.421 20.0524 106 20.7366 106.789 21.2103C107.579 21.684 108.526 21.9471 109.526 21.9471C110.737 21.9471 111.737 21.6839 112.579 21.105C113.368 20.526 113.895 19.6313 114.053 18.4734H116C115.842 19.4208 115.526 20.3155 114.947 21.0523C114.421 21.7892 113.684 22.4208 112.737 22.8419C111.895 23.2629 110.789 23.5261 109.526 23.5261ZM114.053 14.2629C114.053 12.6839 113.632 11.4208 112.789 10.4734C111.947 9.52607 110.842 9.05239 109.368 9.05239C107.947 9.05239 106.789 9.52602 105.895 10.526C105 11.526 104.474 12.7365 104.316 14.2629H114.053Z" fill="var(--fill-0, #465654)"/>
<path id="Vector_6" d="M119.158 23.0524V7.8945H121.105V8.8945C121.105 9.0524 121.105 9.21029 121.105 9.36819C121.105 9.52608 121.105 9.68398 121.105 9.84187C121.105 9.99977 121.105 10.2103 121.105 10.3682C121.105 10.5261 121.105 10.7366 121.105 10.9471C121.526 9.94713 122.158 9.10503 123.105 8.47345C124 7.84187 125.053 7.47345 126.263 7.47345C126.579 7.47345 126.842 7.47345 127.105 7.52608V9.42082C126.737 9.36819 126.421 9.36819 126.158 9.36819C125.158 9.36819 124.263 9.57871 123.526 10.0524C122.789 10.5261 122.21 11.1577 121.789 11.9998C121.368 12.8419 121.158 13.8419 121.158 14.9471V23.105H119.158V23.0524Z" fill="var(--fill-0, #465654)"/>
<path id="Vector_7" d="M131.947 22.6313L131.842 23.0524H125.684L125.79 22.6313C127.474 22.4734 128.211 21.9471 128.474 20.6839L131.947 4.31551C132.316 2.6313 131.79 2.36814 130 2.73656L130.105 2.31551L133.895 1.05235H134.316L130.158 20.7366C129.842 21.9471 130.316 22.4734 131.947 22.6313Z" fill="var(--fill-0, #465654)"/>
<path id="Vector_8" d="M138.947 22.6313L138.842 23.0525H132.631L132.737 22.6313C134.421 22.4735 135.158 21.9472 135.421 20.684L137.526 10.684C137.895 8.99982 137.421 8.73666 135.579 9.10508L135.684 8.68398L139.474 7.42082H139.895L137.105 20.684C136.842 21.9472 137.316 22.4735 138.947 22.6313ZM140 1.89453C140.842 1.89453 141.368 2.52611 141.263 3.36822C141.158 4.21032 140.421 4.78927 139.631 4.78927C138.789 4.78927 138.21 4.15769 138.316 3.36822C138.368 2.52611 139.105 1.89453 140 1.89453Z" fill="var(--fill-0, #465654)"/>
<path id="Vector_9" d="M149.579 27.4734L151.263 19.6313C150.211 21.9471 147.947 23.5261 145.632 23.5261C141.842 23.5261 140.053 19.9471 141.211 14.6313C142 10.7366 145.474 7.42076 149.579 7.42076C151.474 7.42076 153.053 8.26286 153.684 9.52602L155.105 7.42076H155.526L151.211 27.4734C150.895 28.8419 152 29.105 153.105 29.3155L153 29.7366H145.895L146 29.3155C148.105 29.105 149.316 28.8419 149.579 27.4734ZM146.684 22.4208C148.632 22.4208 150.579 20.7365 151.526 18.7365L152.79 12.7366C153.105 10.5787 152.105 8.31555 149.105 8.31555C146.263 8.31555 143.842 10.8945 143.053 14.6313C142.105 19.2103 143.474 22.4208 146.684 22.4208Z" fill="var(--fill-0, #465654)"/>
<path id="Vector_10" d="M176.737 22.6313L176.632 23.0525H170.421L170.526 22.6313C172.21 22.4735 172.947 21.9472 173.21 20.684L175.316 10.684C175.684 8.99982 175.21 8.73666 173.368 9.10508L173.474 8.68398L177.263 7.42082H177.684L174.895 20.684C174.632 21.9472 175.105 22.4735 176.737 22.6313ZM177.789 1.89453C178.632 1.89453 179.158 2.52611 179.053 3.36822C178.947 4.21032 178.21 4.78927 177.421 4.78927C176.579 4.78927 176 4.15769 176.105 3.36822C176.21 2.52611 176.947 1.89453 177.789 1.89453Z" fill="var(--fill-0, #465654)"/>
<path id="Vector_11" d="M167.947 20.6313L169.368 13.9471L170.737 7.42076H170.316L166.526 8.68391L166.421 9.10502C168.21 8.7366 168.684 8.99976 168.368 10.684L166.579 19.2102C164.579 21.0523 163.21 22.1576 161.474 22.1576C159.368 22.1576 158.263 20.7366 158.789 18.2629L161.105 7.42076H160.684L156.895 8.68391L156.789 9.10502C158.579 8.7366 159.105 8.99976 158.737 10.684L157.105 18.4734C156.474 21.3681 157.947 23.4734 160.632 23.4734C162.421 23.4734 164 22.4734 166.474 19.8419L166.368 20.3682L165.842 22.9471H169.789L169.895 22.4734C168.158 22.4208 167.684 21.9471 167.947 20.6313Z" fill="var(--fill-0, #465654)"/>
<path id="Vector_12" d="M193.263 6.84188L194.474 0.999756H194.053L190.263 2.26291L190.158 2.68396C191.947 2.31554 192.421 2.5787 192.105 4.26291L191.053 9.26293C190.368 8.15767 188.895 7.42082 187.21 7.42082C183.053 7.42082 179.631 10.7366 178.737 14.8945C177.684 19.9471 179.421 23.5261 183.21 23.5261C185.579 23.5261 187.842 21.8945 188.895 19.5787L188.631 20.8945L188.158 23.0524L192.105 22.9998L192.21 22.5787C190.579 22.4208 190.105 21.8945 190.368 20.6313L193.263 6.84188ZM189.053 18.684C188.158 20.7366 186.158 22.4208 184.21 22.4208C181 22.4208 179.631 19.2103 180.526 14.8945C181.368 10.8419 183.842 8.31556 186.684 8.31556C189.737 8.31556 190.737 10.7366 190.316 12.8945L190.158 13.5787L189.053 18.684Z" fill="var(--fill-0, #465654)"/>
</g>
<defs>
<clipPath id="clip0_349_67">
<rect width="194.737" height="30" fill="white"/>
</clipPath>
</defs>
</svg>
