<svg preserveAspectRatio="none" width="100%" height="100%" overflow="visible" style="display: block;" viewBox="0 0 135 21" fill="none" xmlns="http://www.w3.org/2000/svg">
<g id="Inevitable">
<path id="Vector" d="M130.67 15.5317H134.248C133.434 18.6173 130.84 20.16 126.468 20.16H125.957C123.307 20.16 121.309 19.5921 119.965 18.4564C118.621 17.3016 117.949 15.3992 117.949 12.7491V11.954C117.949 9.3039 118.621 7.41094 119.965 6.27517C121.309 5.12046 123.307 4.54311 125.957 4.54311H126.411C129.061 4.54311 131.049 5.10153 132.374 6.21838C133.718 7.33522 134.39 9.21872 134.39 11.8689V13.1466H121.499C121.556 14.8313 121.953 15.9576 122.691 16.5255C123.448 17.0745 124.622 17.349 126.212 17.349C127.499 17.349 128.484 17.2165 129.165 16.9514C129.847 16.6864 130.348 16.2132 130.67 15.5317ZM126.184 7.127C124.688 7.127 123.562 7.37308 122.805 7.86525C122.067 8.35742 121.641 9.32283 121.527 10.7615H130.869V10.6479C130.869 9.26604 130.433 8.33849 129.563 7.86525C128.692 7.37308 127.566 7.127 126.184 7.127Z" fill="var(--fill-0, #465654)"/>
<path id="Vector_2" d="M116.122 6.10352e-05V19.8761H112.572V6.10352e-05H116.122Z" fill="var(--fill-0, #465654)"/>
<path id="Vector_3" d="M97.1466 19.8761H93.6257V6.10352e-05H97.1466V7.21223H97.2602C98.0742 5.43285 99.9388 4.54316 102.854 4.54316H103.28C105.646 4.54316 107.482 5.10158 108.788 6.21843C110.094 7.33527 110.748 9.21876 110.748 11.8689V12.8627C110.748 15.5128 110.094 17.3963 108.788 18.5132C107.482 19.6111 105.646 20.1601 103.28 20.1601H102.854C99.9388 20.1601 98.0742 19.2704 97.2602 17.491H97.1466V19.8761ZM102.172 17.1503C103.952 17.1503 105.23 16.8568 106.006 16.27C106.801 15.6643 107.198 14.4433 107.198 12.6072V12.0961C107.198 10.2599 106.801 9.0484 106.006 8.46158C105.23 7.85584 103.952 7.55296 102.172 7.55296C100.393 7.55296 99.1059 7.85584 98.3108 8.46158C97.5347 9.06733 97.1466 10.2788 97.1466 12.0961V12.6356C97.1466 14.4339 97.5442 15.6359 98.3392 16.2416C99.1342 16.8474 100.412 17.1503 102.172 17.1503Z" fill="var(--fill-0, #465654)"/>
<path id="Vector_4" d="M91.5395 10.5627V19.8761H88.0186V17.4625H87.905C87.1099 19.2609 85.0845 20.16 81.8286 20.16C79.7842 20.16 78.2225 19.772 77.1435 18.9958C76.0645 18.2008 75.525 17.0366 75.525 15.5033V15.333C75.525 12.4935 77.2382 11.0076 80.6644 10.8751L87.9902 10.5627V10.2788C87.9902 9.02942 87.6589 8.19652 86.9964 7.78007C86.3528 7.34469 85.2832 7.127 83.7878 7.127C82.5763 7.127 81.6582 7.2879 81.0335 7.6097C80.4089 7.91258 79.964 8.43314 79.699 9.17139H76.1213C76.481 7.58131 77.2571 6.41714 78.4497 5.67889C79.6422 4.9217 81.4121 4.54311 83.7594 4.54311H84.2421C86.8165 4.54311 88.6716 4.98796 89.8074 5.87765C90.9621 6.76734 91.5395 8.32903 91.5395 10.5627ZM79.1027 15.2194V15.3614C79.1027 16.9136 80.3521 17.6897 82.8508 17.6897C84.4977 17.6897 85.7659 17.3679 86.6556 16.7243C87.5453 16.0618 87.9902 15.1247 87.9902 13.9133V12.9194L81.8286 13.175C80.8632 13.2129 80.1628 13.3927 79.7274 13.7145C79.3109 14.0363 79.1027 14.5379 79.1027 15.2194Z" fill="var(--fill-0, #465654)"/>
<path id="Vector_5" d="M74.5785 17.0935V19.8761H72.3069C70.1868 19.8761 68.7008 19.4975 67.849 18.7403C67.0161 17.9642 66.5997 16.6392 66.5997 14.7651V7.60975H63.1639V4.8271H66.5997V6.10352e-05H70.149V4.8271H74.5785V7.60975H70.149V14.0553C70.149 15.3236 70.3761 16.147 70.8304 16.5256C71.2847 16.9042 72.165 17.0935 73.4711 17.0935H74.5785Z" fill="var(--fill-0, #465654)"/>
<path id="Vector_6" d="M58.5525 6.10352e-05H62.1018V2.78271H58.5525V6.10352e-05ZM58.5525 4.8271H62.1018V19.8761H58.5525V4.8271Z" fill="var(--fill-0, #465654)"/>
<path id="Vector_7" d="M57.6759 4.82709L51.202 19.8761H46.4601L40.0146 4.82709H43.933L48.8737 16.6108H49.0724L54.013 4.82709H57.6759Z" fill="var(--fill-0, #465654)"/>
<path id="Vector_8" d="M36.3661 15.5317H39.9438C39.1298 18.6173 36.5364 20.16 32.1637 20.16H31.6526C29.0025 20.16 27.0054 19.5921 25.6614 18.4564C24.3174 17.3016 23.6454 15.3992 23.6454 12.7491V11.954C23.6454 9.3039 24.3174 7.41094 25.6614 6.27517C27.0054 5.12046 29.0025 4.54311 31.6526 4.54311H32.1069C34.7571 4.54311 36.7447 5.10153 38.0697 6.21838C39.4137 7.33522 40.0857 9.21872 40.0857 11.8689V13.1466H27.1947C27.2515 14.8313 27.649 15.9576 28.3873 16.5255C29.1444 17.0745 30.3181 17.349 31.9082 17.349C33.1954 17.349 34.1797 17.2165 34.8612 16.9514C35.5426 16.6864 36.0443 16.2132 36.3661 15.5317ZM31.8798 7.127C30.3843 7.127 29.258 7.37308 28.5008 7.86525C27.7626 8.35742 27.3367 9.32283 27.2231 10.7615H36.5648V10.6479C36.5648 9.26604 36.1295 8.33849 35.2587 7.86525C34.3879 7.37308 33.2616 7.127 31.8798 7.127Z" fill="var(--fill-0, #465654)"/>
<path id="Vector_9" d="M22.0098 10.4207V19.8761H18.4889V11.1306C18.4889 9.72982 18.1576 8.7928 17.4951 8.31956C16.8514 7.82739 15.886 7.58131 14.5988 7.58131C13.217 7.58131 12.138 7.87472 11.3619 8.46153C10.5858 9.02942 10.1977 10.1273 10.1977 11.7553V19.8761H6.6484V4.82705H10.1977V7.38255H10.3397C11.2104 5.48959 12.9993 4.54311 15.7062 4.54311C17.7127 4.54311 19.265 4.98796 20.3629 5.87765C21.4608 6.74841 22.0098 8.26277 22.0098 10.4207Z" fill="var(--fill-0, #465654)"/>
<path id="Vector_10" d="M3.83333 -1.14441e-05V19.876H9.15527e-05V-1.14441e-05H3.83333Z" fill="var(--fill-0, #465654)"/>
</g>
</svg>
