<svg width="194" height="42" viewBox="0 0 194 42" fill="none" xmlns="http://www.w3.org/2000/svg">
    <g clip-path="url(#clip0_298_230)">
        <path
            d="M45.1006 -2.70935C45.1006 -2.70935 35.8277 2.39974 28.2256 11.2946L45.4756 5.72815L45.6631 12.6656L22.1279 20.2604C20.5777 23.2079 19.4427 26.0409 18.6113 28.6471L45.4756 19.9781L45.6631 26.9156L16.8369 36.2174C16.2102 40.3988 16.4118 43.0246 16.4131 43.0406L9.47559 45.4781C9.47463 45.4611 9.32626 42.7736 9.94727 38.441L-1.39941 42.1031L-1.58691 35.1656L11.5469 30.9264C12.2622 28.3868 13.2181 25.6217 14.499 22.7223L-1.39941 27.8531L-1.58691 20.9156L19.0371 14.2594C29.4433 -2.05311 44.9131 -9.64685 44.9131 -9.64685L45.1006 -2.70935Z"
            fill="#465654" />
    </g>
    <path
        d="M189.656 26.4517H193.233C192.419 29.5372 189.826 31.08 185.453 31.08H184.942C182.292 31.08 180.295 30.5121 178.951 29.3763C177.607 28.2216 176.935 26.3192 176.935 23.669V22.874C176.935 20.2239 177.607 18.3309 178.951 17.1951C180.295 16.0404 182.292 15.4631 184.942 15.4631H185.397C188.047 15.4631 190.034 16.0215 191.359 17.1383C192.703 18.2552 193.375 20.1387 193.375 22.7888V24.0666H180.484C180.541 25.7513 180.939 26.8776 181.677 27.4455C182.434 27.9945 183.608 28.2689 185.198 28.2689C186.485 28.2689 187.469 28.1364 188.151 27.8714C188.832 27.6064 189.334 27.1332 189.656 26.4517ZM185.169 18.047C183.674 18.047 182.548 18.293 181.79 18.7852C181.052 19.2774 180.626 20.2428 180.513 21.6814H189.854V21.5679C189.854 20.186 189.419 19.2585 188.548 18.7852C187.678 18.293 186.551 18.047 185.169 18.047Z"
        fill="#465654" />
    <path d="M175.107 10.92V30.7961H171.558V10.92H175.107Z" fill="#465654" />
    <path
        d="M156.133 30.7961H152.612V10.92H156.133V18.1322H156.246C157.06 16.3528 158.925 15.4631 161.84 15.4631H162.266C164.632 15.4631 166.468 16.0216 167.774 17.1384C169.081 18.2553 169.734 20.1387 169.734 22.7889V23.7827C169.734 26.4328 169.081 28.3163 167.774 29.4332C166.468 30.5311 164.632 31.08 162.266 31.08H161.84C158.925 31.08 157.06 30.1904 156.246 28.411H156.133V30.7961ZM161.159 28.0702C162.938 28.0702 164.216 27.7768 164.992 27.19C165.787 26.5843 166.184 25.3633 166.184 23.5271V23.016C166.184 21.1799 165.787 19.9684 164.992 19.3816C164.216 18.7758 162.938 18.4729 161.159 18.4729C159.379 18.4729 158.092 18.7758 157.297 19.3816C156.521 19.9873 156.133 21.1988 156.133 23.016V23.5555C156.133 25.3538 156.53 26.5559 157.325 27.1616C158.12 27.7674 159.398 28.0702 161.159 28.0702Z"
        fill="#465654" />
    <path
        d="M150.525 21.4827V30.796H147.004V28.3825H146.891C146.096 30.1808 144.07 31.08 140.814 31.08C138.77 31.08 137.208 30.6919 136.129 29.9158C135.05 29.1208 134.511 27.9566 134.511 26.4233V26.2529C134.511 23.4135 136.224 21.9275 139.65 21.795L146.976 21.4827V21.1987C146.976 19.9494 146.645 19.1165 145.982 18.7C145.338 18.2647 144.269 18.047 142.774 18.047C141.562 18.047 140.644 18.2079 140.019 18.5297C139.395 18.8325 138.95 19.3531 138.685 20.0914H135.107C135.467 18.5013 136.243 17.3371 137.435 16.5988C138.628 15.8417 140.398 15.4631 142.745 15.4631H143.228C145.802 15.4631 147.657 15.9079 148.793 16.7976C149.948 17.6873 150.525 19.249 150.525 21.4827ZM138.088 26.1394V26.2813C138.088 27.8336 139.338 28.6097 141.836 28.6097C143.483 28.6097 144.752 28.2879 145.641 27.6443C146.531 26.9817 146.976 26.0447 146.976 24.8332V23.8394L140.814 24.095C139.849 24.1328 139.148 24.3127 138.713 24.6345C138.297 24.9563 138.088 25.4579 138.088 26.1394Z"
        fill="#465654" />
    <path
        d="M133.564 28.0135V30.7961H131.293C129.173 30.7961 127.687 30.4175 126.835 29.6603C126.002 28.8842 125.586 27.5591 125.586 25.6851V18.5297H122.15V15.7471H125.586V10.92H129.135V15.7471H133.564V18.5297H129.135V24.9753C129.135 26.2435 129.362 27.067 129.816 27.4456C130.271 27.8242 131.151 28.0135 132.457 28.0135H133.564Z"
        fill="#465654" />
    <path d="M117.539 10.92H121.088V13.7027H117.539V10.92ZM117.539 15.7471H121.088V30.7961H117.539V15.7471Z"
        fill="#465654" />
    <path
        d="M116.662 15.7471L110.188 30.7961H105.446L99.0005 15.7471H102.919L107.86 27.5307H108.058L112.999 15.7471H116.662Z"
        fill="#465654" />
    <path
        d="M95.352 26.4517H98.9297C98.1157 29.5372 95.5224 31.08 91.1497 31.08H90.6386C87.9884 31.08 85.9913 30.5121 84.6473 29.3763C83.3033 28.2216 82.6313 26.3192 82.6313 23.669V22.874C82.6313 20.2239 83.3033 18.3309 84.6473 17.1951C85.9913 16.0404 87.9884 15.4631 90.6386 15.4631H91.0929C93.743 15.4631 95.7306 16.0215 97.0557 17.1383C98.3997 18.2552 99.0717 20.1387 99.0717 22.7888V24.0666H86.1806C86.2374 25.7513 86.635 26.8776 87.3732 27.4455C88.1304 27.9945 89.304 28.2689 90.8941 28.2689C92.1813 28.2689 93.1657 28.1364 93.8471 27.8714C94.5286 27.6064 95.0302 27.1332 95.352 26.4517ZM90.8657 18.047C89.3703 18.047 88.244 18.293 87.4868 18.7852C86.7485 19.2774 86.3226 20.2428 86.209 21.6814H95.5508V21.5679C95.5508 20.186 95.1154 19.2585 94.2446 18.7852C93.3739 18.293 92.2476 18.047 90.8657 18.047Z"
        fill="#465654" />
    <path
        d="M80.9956 21.3407V30.796H77.4747V22.0506C77.4747 20.6498 77.1435 19.7128 76.4809 19.2395C75.8373 18.7474 74.8719 18.5013 73.5847 18.5013C72.2028 18.5013 71.1239 18.7947 70.3477 19.3815C69.5716 19.9494 69.1836 21.0473 69.1836 22.6752V30.796H65.6343V15.747H69.1836V18.3025H69.3255C70.1963 16.4096 71.9852 15.4631 74.6921 15.4631C76.6986 15.4631 78.2508 15.9079 79.3488 16.7976C80.4467 17.6684 80.9956 19.1827 80.9956 21.3407Z"
        fill="#465654" />
    <path d="M62.8191 10.92V30.796H58.9858V10.92H62.8191Z" fill="#465654" />
    <defs>
        <clipPath id="clip0_298_230">
            <rect width="42" height="42" fill="white" transform="translate(0.186035)" />
        </clipPath>
    </defs>
</svg>