<svg preserveAspectRatio="none" width="100%" height="100%" overflow="visible" style="display: block;" viewBox="0 0 42 42" fill="none" xmlns="http://www.w3.org/2000/svg">
<g id="pfp" clip-path="url(#clip0_349_118)">
<path id="Union" d="M44.9148 -2.70936C44.9148 -2.70936 35.6419 2.39973 28.0398 11.2945L45.2898 5.72814L45.4773 12.6656L21.9421 20.2604C20.3919 23.2078 19.2569 26.0409 18.4255 28.6471L45.2898 19.9781L45.4773 26.9156L16.6511 36.2174C16.0244 40.3988 16.226 43.0246 16.2273 43.0406L9.28976 45.4781C9.2888 45.4611 9.14044 42.7736 9.76144 38.441L-1.58524 42.1031L-1.77274 35.1656L11.3611 30.9264C12.0764 28.3868 13.0322 25.6217 14.3132 22.7223L-1.58524 27.8531L-1.77274 20.9156L18.8513 14.2594C29.2575 -2.05312 44.7273 -9.64686 44.7273 -9.64686L44.9148 -2.70936Z" fill="var(--fill-0, #465654)"/>
</g>
<defs>
<clipPath id="clip0_349_118">
<rect width="42" height="42" fill="white"/>
</clipPath>
</defs>
</svg>
