<svg preserveAspectRatio="none" width="100%" height="100%" overflow="visible" style="display: block;" viewBox="0 0 207 34" fill="none" xmlns="http://www.w3.org/2000/svg">
<g id="Frame" clip-path="url(#clip0_349_112)">
<path id="Vector" fill-rule="evenodd" clip-rule="evenodd" d="M42.388 29.0045H48.8021C48.8021 28.7367 48.7979 28.469 48.7894 28.2029H43.7854L48.7367 27.2178C48.6954 26.6557 48.6345 26.0952 48.5539 25.5373L43.8602 26.4715L48.3984 24.5913C48.2893 24.0044 48.1583 23.4217 48.0057 22.8445L43.5653 24.6848L47.7345 21.8976C47.5475 21.289 47.335 20.6906 47.1013 20.1041L42.8819 22.9236L46.6839 19.1207C46.4059 18.5046 46.1019 17.9006 45.7727 17.3102L41.8117 21.2712L45.1556 16.2664C44.774 15.6561 44.3651 15.0636 43.9316 14.4916L40.3735 19.816L43.0391 13.3823C42.5435 12.8027 42.0207 12.2467 41.4726 11.7163L38.7543 18.2792C41.1166 21.355 42.3943 25.1262 42.388 29.0045ZM7.11049 29.0045C7.11049 28.5191 7.13004 28.038 7.16914 27.562H0.738892C0.710842 28.0389 0.696392 28.52 0.696392 29.0045H7.11049ZM7.59159 24.8964L1.29649 23.6435C1.50644 22.7213 1.76994 21.8177 2.08274 20.9388L8.46709 22.2087C8.10328 23.0796 7.81049 23.9784 7.59159 24.8964ZM9.69109 19.8143L3.71049 17.3374C4.16099 16.529 4.65484 15.7479 5.19204 14.9999L11.3384 17.5465C10.7302 18.2577 10.1793 19.016 9.69109 19.8143ZM13.1591 15.7088L7.68679 12.0521C8.32876 11.4057 9.00672 10.7962 9.71744 10.2263L15.4167 14.0343C14.621 14.5317 13.866 15.0917 13.1591 15.7088ZM17.5281 12.9072L12.7655 8.14549C13.5467 7.69555 14.3527 7.29002 15.1795 6.93085L20.2056 11.9569C19.2808 12.2034 18.3866 12.5213 17.5281 12.9072ZM22.2745 11.5387L18.4325 5.79014C19.2944 5.5561 20.1687 5.37051 21.0513 5.23424L25.1517 11.3712C24.1897 11.3492 23.2275 11.4052 22.2745 11.5387ZM26.8849 11.4936L24.1776 4.95884C25.0574 4.93839 25.9375 4.96534 26.8143 5.03959L29.7298 12.0793C28.7993 11.8058 27.8478 11.6099 26.8849 11.4936ZM30.97 12.4941L29.5658 5.43399C30.4158 5.60739 31.2505 5.82499 32.0656 6.08509L33.5871 13.7368C32.7505 13.2512 31.8751 12.8355 30.97 12.4941ZM34.3173 14.1839V6.92999C35.0874 7.26404 35.8362 7.63805 36.5613 8.04775V15.9051C35.8604 15.2725 35.11 14.6969 34.3173 14.1839ZM36.8826 16.2018L38.291 9.12299C38.954 9.57531 39.594 10.0604 40.2086 10.5765L38.6922 18.2001C38.1406 17.4894 37.5356 16.8208 36.8826 16.2018Z" fill="var(--fill-0, #465654)"/>
<path id="Vector_2" fill-rule="evenodd" clip-rule="evenodd" d="M35.974 29.0045H42.3881C42.3881 28.6977 42.3796 28.3925 42.3643 28.0891L39.1742 28.0338L42.3218 27.4643C42.2566 26.7089 42.1427 25.9585 41.9809 25.2178L38.3667 25.8714L41.8118 24.514C41.6248 23.8008 41.3936 23.1055 41.1224 22.4306L37.1801 23.9827L40.7909 21.6605C40.4964 21.018 40.1635 20.3938 39.7939 19.7914L35.6926 22.4298L39.2643 18.9796C38.8767 18.4186 38.4568 17.8814 38.0072 17.3706L33.9858 21.2542L37.2456 16.5554C36.7826 16.0907 36.2943 15.652 35.7827 15.2413L32.1481 20.4799L34.7576 14.4789C34.2408 14.1219 33.7036 13.7904 33.1477 13.4895L30.5748 19.408C32.2238 20.4085 33.587 21.8173 34.5328 23.4983C35.4785 25.1793 35.9749 27.0758 35.974 29.0045ZM13.5255 29.0045H7.10967C7.10967 28.707 7.11732 28.4095 7.13177 28.1154L13.5501 28.2276C13.5331 28.4843 13.5255 28.7436 13.5255 29.0045ZM31.8455 12.8511C31.2926 12.6079 30.7274 12.3934 30.1523 12.2085L28.7813 18.5257C29.3584 18.7476 29.9126 19.0162 30.4388 19.3273L31.8455 12.8511ZM28.5781 11.7827C28.0146 11.6579 27.4452 11.5609 26.8722 11.492L26.7591 17.9596C27.3439 18.065 27.9126 18.2163 28.4625 18.4084L28.5781 11.7827ZM24.7497 11.3662C24.2992 11.3662 23.8538 11.3832 23.4127 11.4155L24.5636 17.782C25.1234 17.7722 25.6831 17.8043 26.2381 17.878L25.0608 11.3687C24.9571 11.367 24.8534 11.3662 24.7497 11.3662ZM21.4024 18.2877L17.8503 12.7661C17.3938 12.9599 16.9476 13.1724 16.5124 13.4036L20.0025 18.83C20.4561 18.618 20.9235 18.4369 21.4016 18.2877H21.4024ZM19.0479 19.3332L14.514 14.6378C14.1341 14.909 13.766 15.1946 13.409 15.4938L17.8817 20.1263C18.2532 19.8373 18.6416 19.5738 19.0479 19.3332ZM11.6087 17.238C11.3163 17.5644 11.0358 17.901 10.7689 18.2486L16.0491 21.9121C16.3279 21.5704 16.6271 21.2449 16.9433 20.9389L11.6087 17.238ZM9.31372 20.4612C9.11482 20.8201 8.92856 21.1858 8.75527 21.5577L14.6415 24.1179C14.8217 23.7456 15.0215 23.3852 15.2408 23.0384L9.31457 20.4612H9.31372ZM7.78627 24.1536C7.68115 24.5222 7.58817 24.8941 7.50747 25.2688L13.7762 26.6296C13.8578 26.2522 13.9581 25.8816 14.0763 25.5187L7.78627 24.1536ZM23.8479 17.816C23.3124 17.8585 22.7871 17.9384 22.2754 18.054L19.9064 12.0394C20.4085 11.8963 20.9168 11.7758 21.4296 11.6781L23.8479 17.816Z" fill="var(--fill-0, #465654)"/>
<path id="Vector_3" fill-rule="evenodd" clip-rule="evenodd" d="M35.0795 29.0046L35.9737 28.9731C35.9737 28.7946 35.9686 28.6161 35.9601 28.4393L30.5192 28.6289L30.424 28.6136L35.8513 27.3352C35.8207 27.1312 35.785 26.9297 35.7433 26.7291L30.5898 27.9429L35.4841 25.7125C35.4152 25.489 35.3396 25.2688 35.258 25.0512L30.6748 27.1405L34.8619 24.1264C34.7482 23.8916 34.6263 23.6608 34.4964 23.4345L30.5558 26.271L33.9728 22.6066C33.8079 22.3686 33.6328 22.1366 33.45 21.913L30.2107 25.387L32.8074 21.1905C32.5864 20.961 32.3544 20.7426 32.1138 20.5335L29.6318 24.5455L31.3573 19.93C31.0768 19.726 30.787 19.5339 30.4878 19.3554L28.8235 23.8051L29.6242 18.8904C29.2855 18.7271 28.9389 18.581 28.5855 18.4527L27.8086 23.2237L27.6309 18.1535C27.2442 18.0515 26.8489 17.9682 26.446 17.907L26.6186 22.854L25.4286 17.7999C24.9986 17.7743 24.5675 17.7732 24.1374 17.7965L25.3019 22.7418L23.0962 17.901C22.6397 17.9682 22.1926 18.0625 21.7566 18.1832L23.9156 22.922L20.7434 18.5156C20.2912 18.6881 19.8534 18.8896 19.4318 19.1174L22.5258 23.4158L18.5113 19.6716C18.0897 19.9538 17.6885 20.264 17.3102 20.5981L21.2049 24.2301L16.5435 21.3461C16.1823 21.7328 15.8474 22.1451 15.5431 22.5811L20.0251 25.3547L14.9821 23.4694C14.7101 23.9488 14.4721 24.4511 14.2706 24.9722L19.0604 26.7623L13.951 25.931C13.7938 26.4826 13.679 27.0521 13.6076 27.6344L18.3753 28.4113L13.5328 28.5804C13.5277 28.7207 13.5243 28.8626 13.5243 29.0046H19.9393C19.9561 27.7398 20.4703 26.5325 21.3706 25.6441C22.271 24.7556 23.485 24.2575 24.7499 24.2575C26.0147 24.2575 27.2287 24.7556 28.1291 25.6441C29.0294 26.5325 29.5436 27.7398 29.5604 29.0046H35.0795Z" fill="var(--fill-0, #465654)"/>
<path id="Vector_4" d="M206.411 19.3333H192.982C193.51 21.9343 195.373 23.3759 198.115 23.3759C200.118 23.3759 201.313 22.9891 203.247 21.6538L205.286 24.6067C203.036 26.469 200.962 27.2076 197.974 27.2076C192.421 27.2076 188.483 23.0248 188.483 17.646C188.483 12.2681 192.596 8.0852 197.799 8.0852C203.458 8.0852 206.411 12.4797 206.411 17.7166V19.3333ZM192.948 16.1696H202.087C201.876 13.9553 200.575 11.8465 197.833 11.8465C195.338 11.8465 193.44 13.3935 192.948 16.1696ZM169.21 32.5507L170.335 28.8601C171.987 29.6336 173.851 30.1249 175.749 30.1249C180.178 30.1249 181.337 28.2974 181.337 25.2033V23.7975C180.353 25.064 178.315 26.6807 175.257 26.6807C170.335 26.6807 166.855 22.7434 166.855 17.4352C166.855 12.0921 170.335 8.0852 175.257 8.0852C178.56 8.0852 180.81 9.56165 182.111 11.2132L182.884 8.47195H185.732V24.395C185.732 31.144 182.147 33.9575 176.1 33.9575C172.62 33.9575 170.3 33.1134 169.21 32.5507ZM176.346 22.6737C179.299 22.6737 181.337 20.5283 181.337 17.4352C181.337 14.3412 179.299 12.0921 176.346 12.0921C173.323 12.0921 171.284 14.2366 171.284 17.4352C171.284 20.5989 173.323 22.6737 176.346 22.6737ZM161.256 26.8209L160.483 24.044C159.182 25.6964 156.932 27.2076 153.628 27.2076C148.707 27.2076 145.227 22.9543 145.227 17.646C145.227 12.3029 148.707 8.0852 153.628 8.0852C154.797 8.07647 155.953 8.33473 157.007 8.84028C158.061 9.34582 158.985 10.0853 159.71 11.0024V2.30435H164.104V26.8209H161.256ZM154.718 23.1999C157.671 23.1999 159.71 20.74 159.71 17.646C159.71 14.518 157.671 12.0921 154.718 12.0921C151.695 12.0921 149.656 14.4475 149.656 17.646C149.656 20.8097 151.695 23.1999 154.718 23.1999ZM137.591 2.67155C137.591 1.1951 138.716 1.3532e-07 140.228 1.3532e-07C140.579 -0.000111552 140.926 0.0689139 141.25 0.203132C141.575 0.337351 141.869 0.534131 142.117 0.78223C142.365 1.03033 142.562 1.32488 142.696 1.64906C142.831 1.97324 142.9 2.32069 142.9 2.67155C142.9 3.02241 142.831 3.36986 142.696 3.69404C142.562 4.01822 142.365 4.31277 142.117 4.56087C141.869 4.80897 141.575 5.00575 141.25 5.13997C140.926 5.27419 140.579 5.34321 140.228 5.3431C138.716 5.3431 137.591 4.148 137.591 2.67155ZM142.477 26.8209H138.083V8.47195H142.477V26.8209ZM129.157 26.8209H124.762V8.47195H127.575L128.63 11.7054C129.614 9.94755 131.231 7.8387 135.941 8.12005L135.343 12.7951C130.633 12.4789 129.157 14.9396 129.157 17.8925V26.8209ZM113.029 26.8209H102.624V2.21425H112.15C116.158 2.21425 120.973 3.86665 120.973 8.96325C120.973 11.8813 119.111 13.3926 117.564 14.201V14.2367C119.216 14.9396 121.852 16.4866 121.852 20.1068C121.852 25.0631 117.669 26.8209 113.029 26.8209ZM107.123 6.1166V12.4789H112.255C114.963 12.4789 116.439 11.2489 116.439 9.38485C116.439 7.03035 114.892 6.1166 111.939 6.1166H107.123ZM107.123 16.3106V22.9194H112.783C115.947 22.9194 117.317 21.8646 117.317 19.72C117.317 17.6817 115.666 16.3106 112.889 16.3106H107.123ZM99.6762 19.3333H86.2488C86.7758 21.9343 88.639 23.3759 91.3811 23.3759C93.3845 23.3759 94.5796 22.9891 96.5134 21.6538L98.5517 24.6067C96.3017 26.469 94.2277 27.2076 91.24 27.2076C85.6861 27.2076 81.7489 23.0248 81.7489 17.646C81.7489 12.2681 85.862 8.0852 91.064 8.0852C96.7242 8.0852 99.6762 12.4797 99.6762 17.7166V19.3333ZM86.2131 16.1696H95.3531C95.1423 13.9553 93.8418 11.8465 91.0997 11.8465C88.6041 11.8465 86.7052 13.3935 86.2131 16.1696ZM76.1499 26.8209L75.3764 24.044C74.0759 25.6964 71.8268 27.2076 68.522 27.2076C63.6005 27.2076 60.1215 22.9543 60.1215 17.646C60.1215 12.3029 63.6014 8.0852 68.522 8.0852C69.6909 8.07641 70.8464 8.33464 71.9004 8.84019C72.9543 9.34574 73.879 10.0853 74.6038 11.0024V2.30435H78.9983V26.8209H76.1499ZM69.6117 23.1999C72.5646 23.1999 74.6038 20.74 74.6038 17.646C74.6038 14.518 72.5646 12.0921 69.6117 12.0921C66.5891 12.0921 64.55 14.4475 64.55 17.646C64.55 20.8097 66.5891 23.1999 69.6117 23.1999Z" fill="var(--fill-0, #465654)"/>
</g>
<defs>
<clipPath id="clip0_349_112">
<rect width="206.55" height="34" fill="white"/>
</clipPath>
</defs>
</svg>
