<svg preserveAspectRatio="none" width="100%" height="100%" overflow="visible" style="display: block;" viewBox="0 0 250 254" fill="none" xmlns="http://www.w3.org/2000/svg">
<path id="Intersect" d="M248.344 36.9746C248.731 37.313 249.117 37.6528 249.501 37.9951C233.1 146.877 148.883 233.539 41.2412 253.592C40.8858 253.22 40.5322 252.846 40.1807 252.471C147.949 232.757 232.286 145.976 248.344 36.9746ZM237.72 28.5059C224.677 138.008 139.684 225.424 31.3535 242.145C31.0653 241.775 30.777 241.406 30.4922 241.033C138.825 224.621 223.844 137.18 236.577 27.6826C236.96 27.9548 237.34 28.2302 237.72 28.5059ZM225.542 20.5371C215.614 129.427 130.761 216.661 22.9697 230.25C22.7399 229.888 22.5109 229.525 22.2842 229.161C129.97 215.841 214.769 128.669 224.432 19.8906C224.803 20.1043 225.173 20.3203 225.542 20.5371ZM213.077 13.9854C205.926 121.119 122.097 207.262 15.9883 218.017C15.8097 217.666 15.6319 217.316 15.4561 216.964C121.37 206.435 205.073 120.426 212.007 13.4932C212.364 13.6565 212.721 13.8193 213.077 13.9854ZM152.046 0C152.601 0.00848724 153.155 0.0187081 153.708 0.0332031C145.823 7.50051 137.418 14.4238 128.55 20.7402C128.123 25.9019 127.544 31.0205 126.818 36.0918C142.218 26.0711 156.418 14.3628 169.159 1.23145C169.665 1.29692 170.17 1.3631 170.674 1.43359C157.458 15.1542 142.663 27.3441 126.581 37.709C125.806 42.8903 124.879 48.0214 123.802 53.0977C146.374 39.8387 166.747 23.2391 184.243 3.97852C184.722 4.09138 185.201 4.20482 185.678 4.32227C167.724 24.1963 146.732 41.2732 123.431 54.8164C110.497 113.797 77.4525 165.246 31.8486 201.614C124.391 184.213 195.102 104.944 199.387 8.4043C199.727 8.52359 200.065 8.64591 200.404 8.76758C195.927 106.317 123.965 186.259 30.1162 202.985C24.9787 207.011 19.6842 210.846 14.2451 214.481C14.0574 214.088 13.8699 213.694 13.6855 213.299C18.3694 210.163 22.9453 206.878 27.4053 203.45C21.7866 204.375 16.0915 205.071 10.3301 205.533C10.1964 205.198 10.0639 204.863 9.93262 204.526C16.4235 204.015 22.8298 203.204 29.1377 202.105C75.1976 166.076 108.683 114.712 121.911 55.6924C117.392 58.278 112.788 60.7311 108.104 63.0469C92.6764 120.505 56.9556 169.651 9.09766 202.336C8.95025 201.94 8.80431 201.544 8.66016 201.146C55.8616 168.823 91.1603 120.39 106.633 63.7686C102.009 66.0178 97.3087 68.1334 92.5361 70.1104C76.9712 118.812 45.8215 160.547 4.95312 189.453C4.84434 189.053 4.73934 188.652 4.63379 188.251C44.8637 159.685 75.5869 118.608 91.127 70.6895C86.4154 72.6086 81.6344 74.3924 76.7891 76.0371C61.8501 116.068 35.5876 150.577 1.89941 175.675C1.82943 175.269 1.76008 174.864 1.69336 174.457C34.7624 149.689 60.5939 115.786 75.4434 76.4893C70.6579 78.0842 65.8105 79.5438 60.9053 80.8623C47.408 112.245 26.375 139.621 0.0859375 160.717C0.0562922 160.298 0.0261936 159.878 0 159.458C25.6872 138.698 46.2857 111.892 59.6299 81.2021C44.4567 85.1973 28.7385 87.8486 12.6104 89.0234C12.8105 88.5739 13.0133 88.1259 13.2178 87.6787C29.367 86.4578 45.1005 83.7492 60.2812 79.6875C62.1781 75.2272 63.922 70.6862 65.5068 66.0713C50.7225 70.5892 35.3464 73.7506 19.5234 75.4131C19.7767 74.9718 20.0324 74.5322 20.29 74.0938C36.0203 72.3828 51.3033 69.1838 65.9941 64.6357C67.4982 60.1479 68.8522 55.5913 70.0498 50.9717C56.8063 55.5745 43.019 59.0133 28.8105 61.1719C29.1386 60.726 29.4689 60.2819 29.8018 59.8398C43.7873 57.6422 57.3582 54.1974 70.3955 49.6172C71.5279 45.1229 72.5131 40.5701 73.3447 35.9639C63.2587 39.8911 52.811 43.0928 42.0664 45.5117C42.5412 45.0227 43.0187 44.5363 43.5 44.0537C53.8227 41.6441 63.8654 38.5073 73.5693 34.6943C74.3497 30.2111 74.9851 25.6783 75.4707 21.1006C73.0284 22.1538 70.5611 23.1593 68.0713 24.1201C69.7421 23.0342 71.4355 21.9802 73.1514 20.96C73.968 20.6176 74.7825 20.2715 75.5938 19.9189C75.6071 19.7856 75.6187 19.652 75.6318 19.5186C75.9974 19.3106 76.363 19.1025 76.7305 18.8975C76.7133 19.0791 76.6983 19.2609 76.6807 19.4424C80.8774 17.5894 85.0007 15.6008 89.0449 13.4814C89.061 13.2326 89.0745 12.9835 89.0898 12.7344C89.467 12.5676 89.8449 12.4021 90.2236 12.2383C90.2111 12.4519 90.1997 12.6655 90.1865 12.8789C91.7351 12.055 93.2713 11.2107 94.7959 10.3486C96.6423 9.62197 98.5073 8.93301 100.389 8.27832C97.0226 10.31 93.595 12.25 90.1074 14.0918C89.7915 18.7917 89.3282 23.451 88.7217 28.0654C93.0023 25.9956 97.2054 23.7909 101.325 21.4561C101.762 16.8915 102.064 12.2883 102.231 7.65039C102.624 7.51954 103.016 7.38746 103.41 7.25977C103.254 11.7909 102.971 16.2891 102.561 20.751C106.754 18.3382 110.86 15.7909 114.873 13.1143C115.044 10.0793 115.159 7.02944 115.219 3.96582C115.63 3.86901 116.042 3.77407 116.455 3.68066C116.402 6.55069 116.3 9.40881 116.15 12.2539C120.236 9.48674 124.224 6.58531 128.106 3.55566C128.118 2.87863 128.126 2.20086 128.133 1.52246C128.565 1.46028 128.997 1.40029 129.43 1.3418C129.426 1.73623 129.423 2.13054 129.418 2.52441C130.006 2.05834 130.591 1.58818 131.174 1.11621C131.849 1.03308 132.525 0.955 133.202 0.880859C131.945 1.91506 130.676 2.93674 129.396 3.94336C129.302 9.07402 129.058 14.1681 128.67 19.2217C136.88 13.3217 144.688 6.89791 152.046 0ZM80.6729 60.8877C76.0893 62.6248 71.4402 64.228 66.7305 65.6943C65.1609 70.32 63.4329 74.8724 61.5518 79.3447C66.4359 78.011 71.2625 76.5382 76.0264 74.9287C77.7279 70.3193 79.2787 65.637 80.6729 60.8877ZM95.7012 54.6123C91.1936 56.6737 86.6127 58.6025 81.9639 60.3945C80.5862 65.155 79.0518 69.849 77.3672 74.4707C82.1922 72.8107 86.952 71.0109 91.6426 69.0771C93.1467 64.3201 94.5011 59.4966 95.7012 54.6123ZM110.542 47.2061C106.125 49.5997 101.627 51.8634 97.0527 53.9893C95.8704 58.8861 94.5331 63.7224 93.0469 68.4932C97.799 66.5009 102.479 64.3704 107.081 62.1064C108.385 57.1985 109.541 52.2301 110.542 47.2061ZM84.6172 45.3506C80.2209 47.2197 75.7555 48.9578 71.2256 50.5596C70.0422 55.1887 68.7033 59.7555 67.2139 64.2539C71.9057 62.7742 76.5365 61.1573 81.1016 59.4072C82.4236 54.7824 83.5971 50.0951 84.6172 45.3506ZM125.132 38.6357C120.826 41.3687 116.429 43.9714 111.946 46.4385C110.964 51.476 109.828 56.4584 108.544 61.3809C113.208 59.0494 117.791 56.5804 122.289 53.9795C123.387 48.9187 124.336 43.8026 125.132 38.6357ZM99.0332 38.6299C94.717 40.8258 90.3226 42.8897 85.8564 44.8193C84.8518 49.5747 83.6941 54.2735 82.3877 58.9102C87.0191 57.1044 91.5819 55.1617 96.0713 53.0869C97.2073 48.3232 98.1963 43.5026 99.0332 38.6299ZM113.237 30.7666C109.018 33.2981 104.713 35.7003 100.326 37.9668C99.5062 42.8514 98.535 47.6845 97.416 52.4609C101.973 50.3214 106.452 48.0448 110.85 45.6377C111.794 40.7313 112.591 35.7726 113.237 30.7666ZM87.3564 29.9375C83.1351 31.9303 78.8398 33.7916 74.4766 35.5186C73.658 40.1344 72.6864 44.6974 71.5674 49.2021C76.0819 47.5887 80.5319 45.8396 84.9121 43.959C85.8743 39.3369 86.6908 34.6615 87.3564 29.9375ZM127.166 21.7178C123.066 24.5937 118.869 27.3415 114.581 29.9541C113.953 34.9738 113.173 39.9463 112.247 44.8672C116.711 42.386 121.088 39.7692 125.375 37.0225C126.121 31.9672 126.719 26.8642 127.166 21.7178ZM101.193 22.793C97.0582 25.1173 92.841 27.3128 88.5459 29.3721C87.8948 34.1057 87.0937 38.7913 86.1465 43.4238C90.597 41.4822 94.9747 39.405 99.2744 37.1973C100.06 32.4431 100.702 27.6401 101.193 22.793ZM114.791 14.4883C110.762 17.1536 106.641 19.6894 102.433 22.0908C101.957 26.9497 101.332 31.7646 100.562 36.5312C104.933 34.2524 109.221 31.8377 113.423 29.2939C114.025 24.4019 114.482 19.4653 114.791 14.4883ZM88.9639 14.6914C84.9065 16.8018 80.7707 18.7819 76.5615 20.626C76.0881 25.2127 75.4661 29.7551 74.6982 34.248C79.0481 32.5108 83.329 30.6378 87.5361 28.6348C88.1567 24.0308 88.6341 19.3815 88.9639 14.6914ZM128.079 4.9707C124.18 7.98831 120.176 10.8777 116.074 13.6328C115.784 18.6228 115.344 23.5728 114.761 28.4785C119.032 25.8528 123.212 23.0921 127.294 20.2031C127.702 15.1652 127.965 10.0864 128.079 4.9707Z" fill="url(#paint0_linear_349_3)" fill-opacity="0.3"/>
<defs>
<linearGradient id="paint0_linear_349_3" x1="124.75" y1="0" x2="124.75" y2="253.592" gradientUnits="userSpaceOnUse">
<stop stop-color="#366465"/>
<stop offset="1" stop-color="#0C1010"/>
</linearGradient>
</defs>
</svg>
