<svg preserveAspectRatio="none" width="100%" height="100%" overflow="visible" style="display: block;" viewBox="0 0 341 341" fill="none" xmlns="http://www.w3.org/2000/svg">
<g id="Frame 1707479206">
<path id="Ellipse 72" d="M340 170C340 170 93.8884 170 0 170C0 263.888 0 175 0 170C0 76.1116 76.1116 0 170 0C263.888 0 340 76.1116 340 170Z" fill="var(--fill-0, #E24E76)"/>
<g id="Frame 1707479208">
<path id="Subtract" d="M260.597 26.2282C240.433 13.6383 217.849 5.42053 194.421 2.05929C218.522 5.46683 240.929 13.8969 260.597 26.2282ZM170.415 170.367C247.778 129.232 320.515 90.5564 320.515 90.5564C317.823 85.4928 314.909 80.6223 311.795 75.948C329.918 103.036 340.435 135.557 340.413 170.367L170.415 170.367ZM340.322 175.934C340.318 176.056 340.315 176.178 340.311 176.3C340.309 176.342 340.307 176.384 340.306 176.426C340.312 176.262 340.316 176.098 340.322 175.934ZM292.056 289.125C307.642 273.163 320.111 254.145 328.482 233.055C320.125 254.126 307.693 273.085 292.186 288.993L292.056 289.125ZM218.792 333.384C218.183 333.564 217.572 333.743 216.959 333.917C217.572 333.743 218.183 333.564 218.792 333.384ZM172.614 340.353C187.972 340.159 202.84 337.927 216.959 333.917C202.817 337.938 187.945 340.167 172.614 340.353Z" fill="var(--fill-0, #7F99FF)"/>
</g>
</g>
</svg>
