<svg preserveAspectRatio="none" width="100%" height="100%" overflow="visible" style="display: block;" viewBox="0 0 206 28" fill="none" xmlns="http://www.w3.org/2000/svg">
<g id="Frame 1707479219">
<g id="Vector">
<path d="M12.4882 4.25067C7.80508 2.90961 2.50242 7.08309 0.645032 13.5727C-1.21246 20.0613 1.07853 26.4082 5.76167 27.7493C10.4448 29.0904 15.7475 24.9168 17.605 18.4273C19.4624 11.9387 17.1714 5.59172 12.4882 4.25067ZM11.6992 10.3462C11.5884 11.6892 10.4092 12.6882 9.06615 12.5764C7.72319 12.4657 6.7241 11.2865 6.83587 9.94349C6.94668 8.60053 8.12586 7.60144 9.46892 7.7132C10.8119 7.82401 11.811 9.0032 11.6992 10.3462Z" fill="var(--fill-0, black)"/>
<path d="M29.4009 9.3202C25.7438 8.27387 21.604 11.5322 20.154 16.5988C18.7042 21.6653 20.4922 26.6212 24.1493 27.6674C27.8065 28.7147 31.9463 25.4554 33.3962 20.3888C34.8461 15.3223 33.0581 10.3664 29.4009 9.3202ZM28.8623 15.1854C28.7515 16.5285 27.5723 17.5274 26.2294 17.4157C24.8863 17.305 23.8873 16.1257 23.999 14.7827C24.1107 13.4398 25.2891 12.4407 26.632 12.5524C27.975 12.6632 28.9741 13.8424 28.8623 15.1854Z" fill="var(--fill-0, black)"/>
<path d="M44.4934 5.74216H48.2374V22.5568H44.4934V5.74216ZM46.5788 12.3788H59.6273V15.7195H46.5788V12.3788ZM57.9459 5.74216H61.6899V22.5568H57.9459V5.74216Z" fill="var(--fill-0, black)"/>
<path d="M69.5365 21.7502L63.9091 9.80053H68.0343L73.1909 21.7502H69.5365ZM68.7292 26.5931C67.8919 26.5931 67.1374 26.4881 66.4646 26.2794C65.7918 26.0701 65.1564 25.7637 64.5591 25.3605V22.6698C65.1872 23.0731 65.7844 23.3648 66.353 23.544C66.9208 23.7232 67.5488 23.8128 68.2363 23.8128C68.849 23.8128 69.3947 23.6744 69.8729 23.3981C70.3511 23.1213 70.747 22.6317 71.0613 21.9294L76.3751 9.80053H80.3432L73.9761 23.1407C73.5875 23.9774 73.1166 24.6502 72.5635 25.1585C72.0104 25.6661 71.4091 26.0326 70.7585 26.2574C70.1083 26.4814 69.4315 26.5931 68.7292 26.5931Z" fill="var(--fill-0, black)"/>
<path d="M82.0686 9.80051H85.8126V13.8582L85.6555 14.3511V17.423L85.8126 18.3419V26.256H82.0686V9.80051ZM84.5125 16.1903C84.7666 14.8306 85.2107 13.6455 85.8468 12.6369C86.4822 11.6283 87.2815 10.8472 88.2458 10.2941C89.2093 9.74097 90.2824 9.46469 91.4626 9.46469C92.7179 9.46469 93.8207 9.745 94.7699 10.3054C95.718 10.8659 96.4617 11.6504 96.9999 12.6596C97.538 13.6683 97.8071 14.8453 97.8071 16.1909C97.8071 17.5366 97.538 18.691 96.9999 19.6996C96.4617 20.7082 95.718 21.4934 94.7699 22.0538C93.8207 22.6143 92.7179 22.8945 91.4626 22.8945C90.2072 22.8945 89.1945 22.6176 88.2458 22.0651C87.2968 21.512 86.5009 20.7308 85.8582 19.7223C85.2155 18.7137 84.7659 17.536 84.5125 16.1903ZM94.0188 16.1903C94.0188 15.4432 93.8652 14.7818 93.5591 14.206C93.2529 13.6308 92.8302 13.182 92.2921 12.8609C91.755 12.5399 91.1342 12.3788 90.4318 12.3788C89.7294 12.3788 89.0642 12.5393 88.4357 12.8609C87.8077 13.1826 87.2587 13.6308 86.7878 14.206C86.7791 14.2167 86.7704 14.2274 86.7617 14.2381C85.8441 15.375 85.8455 17.0177 86.7738 18.1459C86.7785 18.1519 86.7831 18.1573 86.7878 18.1634C87.2587 18.7318 87.8077 19.1759 88.4357 19.4976C89.0642 19.8193 89.7284 19.9799 90.4318 19.9799C91.1342 19.9799 91.755 19.8193 92.2921 19.4976C92.8302 19.1765 93.2529 18.7318 93.5591 18.1634C93.8652 17.5954 94.0188 16.938 94.0188 16.1903Z" fill="var(--fill-0, black)"/>
<path d="M107.425 22.8939C105.916 22.8939 104.567 22.6136 103.378 22.0531C102.19 21.4926 101.255 20.7042 100.576 19.6876C99.8963 18.6716 99.5562 17.4905 99.5562 16.1455C99.5562 14.8005 99.8814 13.6495 100.531 12.6483C101.181 11.6471 102.074 10.8659 103.211 10.3054C104.347 9.745 105.639 9.46469 107.089 9.46469C108.539 9.46469 109.839 9.78981 110.901 10.4398C111.962 11.09 112.78 12.0056 113.356 13.186C113.931 14.3671 114.219 15.7569 114.219 17.356H102.562V14.8674H112.202L110.744 15.7643C110.684 15.0173 110.502 14.3818 110.195 13.8588C109.888 13.3358 109.474 12.9325 108.951 12.6483C108.428 12.3647 107.815 12.2222 107.113 12.2222C106.35 12.2222 105.689 12.3754 105.128 12.6817C104.568 12.988 104.134 13.4141 103.828 13.9598C103.521 14.5056 103.369 15.1443 103.369 15.8766C103.369 16.7589 103.563 17.5132 103.952 18.1412C104.34 18.7692 104.908 19.2474 105.656 19.5758C106.403 19.9049 107.308 20.0687 108.368 20.0687C109.325 20.0687 110.289 19.931 111.26 19.6541C112.232 19.3778 113.107 18.9853 113.883 18.4769V20.9877C113.046 21.5857 112.071 22.0525 110.957 22.3889C109.844 22.7253 108.667 22.8931 107.426 22.8931L107.425 22.8939Z" fill="var(--fill-0, black)"/>
<path d="M116.82 9.8005H120.563V22.5574H116.82V9.8005ZM126.773 9.66606V12.8944C126.385 12.8048 125.997 12.7373 125.608 12.6925C125.219 12.6477 124.853 12.6249 124.508 12.6249C123.762 12.6249 123.089 12.7821 122.491 13.0958C121.893 13.4094 121.422 13.8956 121.078 14.553C120.735 15.2112 120.563 16.0405 120.563 17.0417L119.778 16.1C119.868 15.1884 120.033 14.333 120.272 13.5332C120.51 12.7339 120.844 12.031 121.27 11.4257C121.696 10.8205 122.223 10.3423 122.851 9.99108C123.479 9.64 124.226 9.46404 125.092 9.46404C125.376 9.46404 125.664 9.48279 125.956 9.52029C126.247 9.55769 126.518 9.60653 126.773 9.66606Z" fill="var(--fill-0, black)"/>
<path d="M127.94 17.0644H131.796C131.886 17.6329 132.136 18.1291 132.547 18.5552C132.958 18.9813 133.511 19.3103 134.207 19.5417C134.902 19.7738 135.705 19.8895 136.617 19.8895C137.948 19.8895 138.997 19.6989 139.768 19.3176C140.537 18.9365 140.921 18.402 140.921 17.7145C140.921 17.1767 140.701 16.7615 140.26 16.4705C139.82 16.1789 139.001 15.9662 137.805 15.8318L134.42 15.4506C132.237 15.2118 130.656 14.6995 129.677 13.915C128.698 13.1305 128.209 12.0356 128.209 10.6304C128.209 9.52419 128.534 8.58252 129.184 7.80537C129.834 7.02822 130.749 6.43434 131.93 6.02298C133.111 5.61237 134.502 5.40633 136.1 5.40633C137.7 5.40633 139.037 5.63441 140.249 6.08983C141.458 6.54599 142.423 7.1814 143.14 7.99531C143.858 8.80997 144.247 9.76297 144.306 10.8538H140.45C140.375 10.3609 140.154 9.93088 139.788 9.56434C139.421 9.19854 138.917 8.91421 138.275 8.71229C137.632 8.51027 136.877 8.40931 136.01 8.40931C134.799 8.40931 133.835 8.58856 133.118 8.94768C132.401 9.30681 132.042 9.81446 132.042 10.4725C132.042 10.9809 132.256 11.3735 132.68 11.6497C133.106 11.9266 133.857 12.1319 134.934 12.2664L138.454 12.6923C140.008 12.857 141.244 13.1224 142.164 13.4882C143.083 13.8548 143.741 14.3443 144.138 14.9569C144.534 15.5703 144.731 16.3467 144.731 17.2885C144.731 18.4094 144.391 19.3925 143.712 20.2366C143.032 21.0814 142.078 21.7354 140.852 22.1982C139.627 22.6611 138.192 22.8931 136.548 22.8931C134.904 22.8931 133.402 22.6496 132.132 22.1648C130.861 21.6793 129.859 20.999 129.127 20.1242C128.394 19.2501 127.998 18.2294 127.939 17.0637L127.94 17.0644Z" fill="var(--fill-0, black)"/>
<path d="M163.834 20.5169H162.6L166.592 9.80053H170.336L165.403 22.5574H161.569L157.31 11.5494H158.654L154.328 22.5574H150.494L145.561 9.80053H149.35L153.363 20.5169H152.085L156.166 9.80053H159.819L163.833 20.5169H163.834Z" fill="var(--fill-0, black)"/>
<path d="M184.348 16.1903C184.109 17.5354 183.672 18.7124 183.036 19.7217C182.402 20.7302 181.602 21.5121 180.638 22.0645C179.674 22.6177 178.593 22.8939 177.398 22.8939C176.202 22.8939 175.058 22.6136 174.102 22.0531C173.146 21.4927 172.403 20.7082 171.871 19.6989C171.34 18.6904 171.075 17.5206 171.075 16.1903C171.075 14.86 171.34 13.6682 171.871 12.659C172.401 11.6505 173.145 10.8653 174.102 10.3048C175.058 9.74435 176.157 9.46404 177.398 9.46404C178.639 9.46404 179.674 9.74096 180.638 10.2934C181.602 10.8465 182.405 11.6277 183.048 12.6362C183.691 13.6448 184.124 14.8306 184.348 16.1903ZM174.864 16.1903C174.864 16.9381 175.018 17.5955 175.324 18.1634C175.63 18.7318 176.052 19.1759 176.591 19.4976C177.128 19.8194 177.749 19.9799 178.452 19.9799C179.154 19.9799 179.815 19.8194 180.436 19.4976C181.055 19.1765 181.605 18.7318 182.084 18.1634C182.088 18.158 182.094 18.1519 182.098 18.146C183.036 17.0223 183.039 15.3711 182.11 14.2381C182.101 14.2274 182.093 14.2167 182.083 14.206C181.604 13.6307 181.055 13.182 180.435 12.861C179.815 12.5399 179.153 12.3788 178.45 12.3788C177.748 12.3788 177.128 12.5393 176.59 12.861C176.052 13.1826 175.629 13.6307 175.323 14.206C175.017 14.7819 174.863 15.4426 174.863 16.1903H174.864ZM187.103 22.5574H183.362V9.8005H187.103" fill="var(--fill-0, black)"/>
<path d="M189.975 9.80051H193.72V13.8582L193.562 14.3511V17.423L193.72 18.3419V26.256H189.975V9.80051ZM192.419 16.1903C192.674 14.8306 193.117 13.6455 193.753 12.6369C194.389 11.6283 195.187 10.8472 196.153 10.2941C197.117 9.74097 198.189 9.46469 199.37 9.46469C200.625 9.46469 201.727 9.745 202.676 10.3054C203.625 10.8659 204.369 11.6504 204.906 12.6596C205.444 13.6683 205.713 14.8453 205.713 16.1909C205.713 17.5366 205.445 18.691 204.906 19.6996C204.369 20.7082 203.624 21.4934 202.676 22.0538C201.727 22.6143 200.625 22.8945 199.37 22.8945C198.113 22.8945 197.102 22.6176 196.153 22.0651C195.203 21.512 194.407 20.7308 193.765 19.7223C193.122 18.7137 192.674 17.536 192.419 16.1903ZM201.925 16.1903C201.925 15.4432 201.772 14.7818 201.466 14.206C201.16 13.6308 200.737 13.182 200.199 12.8609C199.661 12.5399 199.041 12.3788 198.339 12.3788C197.637 12.3788 196.971 12.5393 196.343 12.8609C195.716 13.1826 195.166 13.6308 194.696 14.206C194.687 14.2167 194.678 14.2274 194.669 14.2381C193.752 15.375 193.753 17.0177 194.682 18.1459C194.686 18.1519 194.691 18.1573 194.696 18.1634C195.166 18.7318 195.716 19.1759 196.343 19.4976C196.971 19.8193 197.637 19.9799 198.339 19.9799C199.041 19.9799 199.661 19.8193 200.199 19.4976C200.737 19.1765 201.16 18.7318 201.466 18.1634C201.772 17.5954 201.925 16.938 201.925 16.1903Z" fill="var(--fill-0, black)"/>
</g>
</g>
</svg>
